<?xml version="1.0" encoding="UTF-8"?>
<svg width="1000px" height="1000px" viewBox="0 0 1000 1000" xmlns="http://www.w3.org/2000/svg" xmlns:xlink="http://www.w3.org/1999/xlink" version="1.1">
 <!-- Generated by Pixelmator Pro 1.4.1 -->
 <path id="path" d="M1000 500 C1000 223.858 776.142 0 500 0 223.858 0 0 223.858 0 500 0 776.142 223.858 1000 500 1000 776.142 1000 1000 776.142 1000 500 Z" fill="#011993" fill-opacity="1" stroke="none"/>
 <g id="new-group">
  <path id="path-1" d="M324.731 527.239 C301.224 439.511 353.286 349.336 441.015 325.83 528.744 302.323 618.917 354.385 642.424 442.114 665.931 529.842 348.238 614.968 324.731 527.239 Z" fill="#0096ff" fill-opacity="1" stroke="none"/>
  <path id="path-2" d="M180.476 716.025 C218.717 716.022 264.782 712.327 316.215 705.063 300.016 701.678 289.905 695.79 287.639 687.334 279.245 656.005 381.68 601.336 516.434 565.228 651.188 529.121 767.235 525.245 775.63 556.575 777.884 564.989 772.139 575.089 759.926 586.059 891.581 532.877 974.936 476.702 965.235 440.5 950.862 386.857 737.633 397.383 488.975 464.01 240.318 530.638 50.391 628.135 64.765 681.778 70.941 704.828 113.835 716.03 180.476 716.025 Z" fill="#0096ff" fill-opacity="1" stroke="none"/>
  <path id="path-3" d="M166.033 592.544 C249.802 554.933 364.505 516.389 493.514 484.726 681.768 438.523 851.646 418.965 945.122 428.675 884.512 399.797 699.438 415.997 488.976 472.39 357.9 507.512 243.147 551.212 166.033 592.544 Z" fill="#ebebeb" fill-opacity="1" stroke="none"/>
  <path id="path-4" d="M345.286 675.005 C340.243 656.184 420.152 618.42 523.768 590.656 627.384 562.892 715.469 555.643 720.512 574.464 725.556 593.285 645.647 631.05 542.031 658.813 438.415 686.577 350.329 693.827 345.286 675.005 Z" fill="#ebebeb" fill-opacity="1" stroke="none"/>
 </g>
</svg>
