<svg viewBox="0 0 512 512" xmlns="http://www.w3.org/2000/svg"><path d="m512 256c0 141.386719-114.613281 256-256 256s-256-114.613281-256-256 114.613281-256 256-256 256 114.613281 256 256zm0 0" fill="#0015cf"/><path d="m74.992188 74.992188c-99.808594 99.808593-99.808594 262.222656 0 362.03125 99.808593 99.808593 262.222656 99.808593 362.03125 0zm0 0" fill="#000F9C"/><g fill="#fff"><path d="m256 144v32h57.375l-85.648438 85.664062 22.625 22.625 85.648438-85.664062v57.375h32v-112zm0 0"/><path d="m182.472656 306.910156 22.625-22.628906 22.628906 22.628906-22.628906 22.625zm0 0"/><path d="m137.207031 352.171875 22.625-22.628906 22.628907 22.628906-22.628907 22.628906zm0 0"/></g></svg>