<svg xmlns="http://www.w3.org/2000/svg" viewBox="0 0 512 512" fill="#fff"><path d="M224 0C100.5 0 0 81.8 0 182.4c0 51 25.6 98.7 70.8 133-14.3 22.4-34.2 47-58.6 53a16 16 0 003.1 31.6h4.1c16.6 0 80.4-2.6 152.9-40.2 16.5 3.3 33.9 5 51.7 5 123.5 0 224-81.8 224-182.4S347.5 0 224 0zm0 332.8c-17.6 0-34.6-1.8-50.6-5.4-3.7-.9-7.7-.4-11 1.5a335 335 0 01-85.1 31.8 291.6 291.6 0 0028.8-41.5 16 16 0 00-5-21.5C57 269 32 226.9 32 182.4 32 99.4 118 32 224 32s192 67.5 192 150.4c0 83-86.2 150.4-192 150.4z"/><path d="M500 480.2c-18.4-4.6-36-19.4-52.7-44 41.3-32 64.7-76 64.7-123 0-22.2-5.3-44-15.8-65a16 16 0 00-28.6 14.3 112.8 112.8 0 0112.4 50.8c0 40.6-23 79-63.2 105.3a16 16 0 00-5 21.6c8 13.3 16.1 24.8 24.6 34.5a277 277 0 01-74.9-27.3 16.1 16.1 0 00-11-1.6c-64.3 14.2-133.6-2.6-177-40.8a16 16 0 10-21.2 24c49.6 43.7 126.7 63.4 199.3 49.3A298.7 298.7 0 00485.2 512c7.3 0 11.7-.4 12.4-.5a16 16 0 002.3-31.4z"/></svg>