<?xml version="1.0" encoding="iso-8859-1"?>
<!-- Generator: Adobe Illustrator 19.0.0, SVG Export Plug-In . SVG Version: 6.00 Build 0)  -->
<svg version="1.1" id="Capa_1" xmlns="http://www.w3.org/2000/svg" xmlns:xlink="http://www.w3.org/1999/xlink" x="0px" y="0px"
	 viewBox="0 0 512 512" style="enable-background:new 0 0 512 512;" xml:space="preserve">
<circle style="fill:#011993;" cx="256" cy="256" r="256"/>
<path style="fill:#011993;" d="M512,256c0-8.639-0.435-17.176-1.27-25.596l-82.857-82.856L86.675,368.127l142.474,142.474
	C237.974,511.521,246.931,512,256,512C397.385,512,512,397.385,512,256z"/>
<path style="fill:#fff;" d="M404.5,377.942h-297c-14.912,0-27-12.088-27-27V161.058c0-14.912,12.088-27,27-27h297
	c14.912,0,27,12.088,27,27v189.884C431.5,365.854,419.412,377.942,404.5,377.942z"/>
<path style="fill:#fff;" d="M404.5,134.058H256.548v243.884H404.5c14.912,0,27-12.088,27-27V161.058
	C431.5,146.146,419.412,134.058,404.5,134.058z"/>
<rect x="80.5" y="178.5" style="fill:#37474F;" width="351" height="61"/>
<rect x="256.55" y="178.5" style="fill:#37474F;" width="174.95" height="61"/>
<g>
	<rect x="116.5" y="268" style="fill:#FF7C11;" width="114" height="9.5"/>
	<rect x="116.5" y="323" style="fill:#FF7C11;" width="92.5" height="9.5"/>
	<rect x="116.5" y="295.5" style="fill:#FF7C11;" width="76" height="9.5"/>
</g>
<g>
</g>
<g>
</g>
<g>
</g>
<g>
</g>
<g>
</g>
<g>
</g>
<g>
</g>
<g>
</g>
<g>
</g>
<g>
</g>
<g>
</g>
<g>
</g>
<g>
</g>
<g>
</g>
<g>
</g>
</svg>
