<?xml version="1.0" standalone="no"?>
<!DOCTYPE svg PUBLIC "-//W3C//DTD SVG 20010904//EN"
 "http://www.w3.org/TR/2001/REC-SVG-20010904/DTD/svg10.dtd">
<svg version="1.0" xmlns="http://www.w3.org/2000/svg"
 width="1714.000000pt" height="868.000000pt" viewBox="0 0 1714.000000 868.000000"
 preserveAspectRatio="xMidYMid meet">

<g transform="translate(0.000000,868.000000) scale(0.100000,-0.100000)"
fill="#1927a6" stroke="none">
<path d="M6355 8463 c-95 -4 -209 -24 -225 -38 -11 -10 -27 -11 -64 -4 -26 5
-58 6 -71 3 -33 -8 -375 -10 -362 -2 23 14 -5 21 -120 29 -156 11 -411 10
-498 -3 -38 -5 -95 -11 -125 -12 -111 -6 -274 -26 -282 -34 -5 -5 -2 -14 7
-22 8 -7 15 -16 15 -21 0 -10 -61 0 -74 12 -28 25 -216 -16 -216 -47 0 -9 9
-18 20 -21 16 -4 18 -8 9 -20 -18 -21 0 -33 56 -34 28 0 58 -3 68 -6 29 -8 3
-37 -44 -48 -66 -16 -62 -35 8 -36 54 -2 77 -3 112 -7 38 -5 -11 -21 -79 -28
-87 -7 -169 9 -151 30 15 18 3 26 -40 26 -21 0 -41 5 -44 10 -8 13 -81 13
-107 -1 -17 -9 -18 -13 -7 -20 8 -5 28 -9 46 -9 40 0 49 -14 29 -45 -9 -13
-16 -26 -16 -28 0 -2 31 -9 68 -16 77 -14 352 -8 395 8 15 6 27 18 27 26 0 16
-5 19 -52 29 -16 4 -28 11 -28 17 0 8 17 9 53 5 57 -7 187 18 187 36 0 5 -4 6
-10 3 -5 -3 -10 -2 -10 2 0 9 56 30 138 52 23 7 42 18 42 26 0 15 23 21 115
30 33 4 87 15 120 25 85 26 105 29 105 19 0 -5 -5 -9 -11 -9 -8 0 -7 -5 1 -15
7 -9 11 -18 8 -21 -3 -2 -63 -14 -132 -24 -156 -24 -176 -33 -118 -51 47 -14
56 -29 17 -29 -34 0 -31 -11 8 -37 30 -20 40 -21 159 -16 106 5 135 3 172 -11
30 -11 43 -22 40 -31 -3 -7 3 -16 14 -19 13 -4 24 -25 34 -62 l16 -55 -29 -21
c-34 -26 -29 -38 17 -38 43 0 44 -17 2 -28 -41 -10 -72 -57 -48 -73 8 -5 37
-8 63 -5 41 4 48 3 45 -11 -2 -9 -20 -22 -41 -29 -52 -18 -102 -62 -103 -90
-1 -13 -6 -29 -12 -37 -9 -10 -8 -19 4 -36 11 -16 14 -34 10 -60 -5 -31 0 -46
24 -85 17 -26 30 -57 30 -70 0 -37 40 -66 92 -66 32 0 50 -6 63 -20 12 -13 31
-20 54 -20 32 0 40 6 74 54 20 30 37 64 37 76 0 13 11 27 31 38 47 26 89 62
89 77 0 31 51 62 123 75 102 18 181 48 233 87 39 30 59 37 142 49 103 15 149
28 277 77 68 26 76 32 55 37 -23 6 -22 7 13 14 33 6 37 10 32 29 -4 12 -15 28
-26 36 -24 17 -24 31 0 24 26 -7 38 17 16 33 -15 11 -11 14 34 20 54 7 73 20
50 35 -10 6 -2 9 24 9 37 0 50 13 22 24 -8 3 -15 10 -15 16 0 5 7 10 15 10 21
0 19 47 -2 59 -24 13 -14 20 38 30 33 6 39 10 27 16 -21 8 -24 44 -5 67 25 31
83 65 132 78 28 6 58 14 68 17 25 6 21 32 -7 39 -13 3 -72 1 -131 -5 -88 -9
-109 -8 -121 3 -11 12 -11 15 2 20 9 3 25 6 36 6 43 0 9 11 -78 25 -82 13
-366 18 -559 8z"/>
<path d="M10927 8374 c-32 -10 -13 -35 44 -60 50 -20 233 -53 243 -43 2 2 6
13 8 24 2 17 -10 24 -82 49 -82 27 -176 40 -213 30z"/>
<path d="M8360 8352 c-24 -2 -47 -8 -51 -13 -3 -6 -54 -12 -113 -14 -59 -2
-110 -6 -113 -9 -11 -11 23 -40 78 -66 30 -14 54 -31 52 -36 -4 -12 61 -34
101 -34 14 0 26 5 26 11 0 20 60 71 98 81 32 9 34 12 17 19 -13 5 12 8 65 8
97 1 127 12 96 36 -11 8 -36 16 -55 16 -85 4 -159 4 -201 1z"/>
<path d="M3975 8293 c-19 -15 -17 -43 3 -43 11 0 40 -3 66 -6 42 -6 46 -5 46
14 0 11 -3 23 -7 25 -16 10 -98 17 -108 10z"/>
<path d="M11290 8288 c0 -7 3 -23 6 -36 5 -18 12 -22 33 -18 14 3 55 8 89 12
76 7 71 20 -15 40 -73 17 -113 18 -113 2z"/>
<path d="M4180 8265 c-14 -16 -6 -35 16 -35 8 0 14 -4 14 -10 0 -5 20 -10 45
-10 25 0 45 5 45 10 0 6 -9 10 -20 10 -22 0 -27 15 -7 23 9 4 8 8 -3 16 -22
16 -76 13 -90 -4z"/>
<path d="M3675 8260 c-3 -6 1 -7 9 -4 18 7 21 14 7 14 -6 0 -13 -4 -16 -10z"/>
<path d="M8471 8251 c-8 -5 -9 -11 -3 -15 5 -3 15 1 22 9 14 16 3 20 -19 6z"/>
<path d="M3668 8243 c-31 -8 -19 -24 15 -21 17 2 31 8 30 13 -2 12 -21 15 -45
8z"/>
<path d="M11459 8214 c-21 -7 -33 -17 -33 -28 1 -11 -7 -16 -28 -16 -16 0 -39
-5 -51 -12 -13 -7 -52 -11 -94 -9 -42 1 -74 -2 -78 -8 -3 -6 -21 -11 -38 -11
-42 -1 -140 -35 -146 -51 -2 -7 4 -18 15 -26 15 -11 8 -13 -58 -13 -41 0 -89
-3 -106 -6 l-31 -6 26 -34 25 -34 -49 0 c-61 0 -116 -17 -106 -33 4 -7 -10 5
-30 26 -37 36 -57 46 -57 28 0 -5 7 -14 15 -21 14 -12 13 -15 -8 -29 -13 -9
-22 -22 -20 -29 4 -10 -1 -10 -20 -1 -18 8 -23 17 -19 34 5 31 -27 51 -94 58
-57 6 -80 -3 -70 -28 3 -10 -3 -29 -15 -47 l-21 -29 24 -27 c14 -15 28 -35 31
-44 4 -10 17 -18 29 -18 27 0 76 -35 65 -46 -4 -4 -53 7 -110 25 -144 45 -257
59 -257 32 0 -4 12 -13 27 -20 24 -11 25 -14 11 -27 -14 -14 -19 -14 -45 0
-17 8 -33 13 -36 10 -3 -3 -32 -10 -64 -15 -32 -4 -74 -11 -93 -15 -29 -5 -33
-4 -22 7 6 7 12 17 12 21 0 14 -23 9 -127 -29 -74 -28 -103 -43 -103 -55 0
-21 -52 -33 -79 -18 -27 14 -27 29 1 39 22 8 22 8 -7 23 -17 9 -52 19 -80 23
-49 7 -50 7 -32 -13 10 -11 17 -27 15 -35 -2 -8 7 -23 19 -33 34 -28 17 -46
-28 -33 -32 10 -40 9 -77 -16 -46 -31 -49 -37 -27 -55 31 -25 -1 -32 -64 -14
-47 13 -65 14 -73 6 -9 -9 -7 -15 8 -26 28 -21 11 -29 -34 -15 -34 10 -43 18
-57 55 -9 24 -24 48 -33 53 -33 19 -3 21 78 5 92 -17 150 -12 175 16 20 22 9
49 -27 68 -56 28 -191 70 -248 77 -35 4 -78 13 -96 21 -18 8 -46 11 -61 8 -20
-4 -33 -1 -42 10 -11 14 -11 16 3 16 38 0 11 17 -51 33 -82 20 -210 12 -241
-16 -11 -10 -36 -17 -63 -17 -24 -1 -60 -7 -79 -14 -57 -21 -191 -114 -229
-159 -116 -139 -163 -180 -263 -225 -86 -39 -92 -48 -84 -125 11 -101 24 -132
61 -150 42 -20 83 -10 138 34 47 38 51 35 106 -68 29 -52 48 -75 85 -98 44
-26 49 -28 57 -12 6 10 22 17 39 17 23 0 30 6 39 31 6 18 11 51 11 75 0 37 3
44 23 50 14 3 31 20 41 41 l17 35 -42 36 c-41 37 -41 38 -30 77 9 33 23 48 78
85 54 36 67 50 68 72 1 36 15 49 61 55 40 5 94 -10 94 -25 0 -5 -29 -30 -65
-55 -75 -54 -94 -84 -77 -122 7 -14 12 -39 12 -56 0 -23 6 -32 27 -40 16 -6
36 -18 46 -26 16 -15 24 -15 95 0 95 21 156 22 171 3 19 -23 -22 -40 -79 -33
-47 6 -140 -11 -140 -25 0 -5 0 -15 0 -23 0 -9 11 -21 25 -27 18 -8 25 -19 25
-39 0 -37 -24 -43 -59 -13 l-31 25 -26 -26 c-22 -22 -26 -33 -21 -63 3 -20 8
-44 12 -54 5 -12 -1 -18 -23 -23 -17 -3 -33 -13 -36 -21 -6 -16 -42 -19 -51
-4 -11 18 -68 10 -140 -18 l-70 -28 -33 19 c-28 17 -37 17 -62 7 -25 -10 -36
-10 -64 4 -53 25 -60 82 -14 107 20 11 20 11 0 25 -13 9 -18 21 -15 39 6 29 2
30 -40 9 -18 -9 -39 -20 -47 -24 -20 -10 -18 -82 3 -135 17 -45 11 -57 -30
-61 -33 -3 -101 -18 -126 -29 -10 -4 -24 -24 -33 -43 -21 -52 -39 -68 -88 -82
-35 -10 -45 -17 -49 -39 -5 -21 -17 -31 -62 -49 -42 -16 -61 -20 -75 -12 -28
15 -30 13 -23 -21 l6 -32 -36 7 c-21 4 -53 4 -73 0 -31 -6 -35 -10 -32 -32 2
-21 10 -28 41 -35 25 -6 50 -23 77 -54 36 -41 40 -51 40 -100 0 -53 -12 -91
-34 -105 -11 -8 -202 -2 -268 8 -51 8 -125 -35 -102 -58 3 -4 7 -37 10 -75 3
-55 0 -76 -16 -108 -25 -48 -26 -81 -3 -94 13 -7 17 -21 16 -53 -2 -41 -1 -43
26 -42 15 0 32 3 38 7 19 12 54 -6 69 -34 8 -16 20 -29 27 -29 8 0 9 -2 1 -8
-6 -4 -23 -30 -38 -59 -19 -39 -38 -59 -73 -80 -27 -15 -56 -37 -65 -48 -27
-32 -51 -113 -45 -155 5 -36 1 -42 -51 -94 -32 -32 -65 -56 -77 -56 -29 0 -62
-26 -81 -63 -9 -17 -27 -40 -40 -50 -13 -10 -29 -37 -35 -60 -7 -23 -25 -55
-39 -72 -34 -37 -50 -67 -50 -94 0 -12 -8 -29 -19 -40 -28 -28 -33 -72 -10
-97 24 -26 35 -154 20 -224 -6 -25 -13 -57 -16 -72 -3 -15 -16 -39 -29 -54
-23 -27 -23 -28 -5 -58 9 -17 17 -50 17 -73 1 -43 28 -103 47 -103 13 0 75
-58 75 -71 0 -5 15 -25 34 -44 19 -18 37 -49 41 -67 12 -53 33 -87 68 -104 17
-9 44 -29 58 -43 39 -39 110 -95 146 -116 32 -19 32 -18 100 8 78 31 124 35
209 17 l60 -12 90 43 c79 38 99 43 174 47 96 5 97 4 136 -72 l21 -41 56 2 c31
1 65 7 77 13 11 6 20 7 20 2 0 -5 16 -26 36 -48 35 -36 36 -40 29 -88 -4 -28
-9 -65 -10 -82 -4 -47 -16 -96 -28 -116 -15 -24 27 -109 85 -175 54 -61 84
-109 93 -148 4 -16 16 -50 28 -74 14 -30 21 -67 22 -115 1 -45 8 -83 18 -103
26 -50 21 -101 -14 -148 -70 -93 -107 -311 -63 -372 11 -16 33 -63 48 -105 15
-43 37 -89 47 -102 12 -16 19 -40 19 -70 0 -50 35 -245 52 -291 6 -16 19 -39
28 -50 10 -11 39 -66 65 -122 38 -81 47 -109 42 -137 -11 -66 3 -115 40 -143
33 -26 36 -26 66 -11 73 36 128 49 209 50 46 0 88 4 93 7 6 4 30 14 55 22 53
16 181 133 229 208 17 26 44 57 60 69 36 26 76 145 66 192 -6 28 -3 31 62 63
86 44 100 60 102 120 1 26 2 51 3 55 1 7 -1 15 -22 72 -22 63 -15 80 63 153
39 37 99 82 132 99 75 38 92 53 118 103 18 36 20 55 18 185 -2 104 -6 149 -16
160 -31 35 -48 100 -42 161 4 35 3 59 -3 59 -5 0 -14 9 -20 20 -12 23 1 82 25
110 7 8 23 40 35 70 13 30 41 73 64 95 23 22 58 65 79 96 23 35 73 85 128 129
136 108 238 261 304 454 33 99 46 216 22 216 -9 0 -18 -4 -22 -9 -3 -6 -27
-13 -53 -17 -26 -4 -70 -15 -97 -24 -28 -10 -83 -23 -123 -30 l-73 -13 -39 40
c-29 31 -35 43 -25 47 8 3 15 15 15 26 0 16 7 20 33 21 17 1 36 1 40 0 4 -1
20 10 35 24 16 15 39 25 57 25 17 0 41 7 53 16 13 9 34 17 48 19 14 1 37 14
52 27 15 14 45 31 67 38 65 20 95 39 95 59 0 10 6 23 13 28 18 14 100 43 120
43 10 0 22 11 27 25 7 18 17 25 35 25 16 0 28 7 31 18 11 34 21 47 42 50 18 3
22 10 20 41 -1 41 7 61 25 61 7 0 27 27 45 60 l33 59 -38 41 c-23 24 -56 46
-85 56 -60 20 -91 60 -91 120 l0 43 -43 -47 c-23 -26 -51 -57 -61 -69 -25 -31
-129 -36 -149 -8 -7 10 -11 22 -8 26 11 19 -17 50 -43 47 -23 -3 -28 2 -34 31
-5 23 -23 49 -53 75 -63 57 -110 166 -71 166 8 0 15 5 15 11 0 7 7 8 18 4 9
-4 25 -7 35 -7 11 1 32 -23 59 -65 28 -44 52 -70 73 -79 18 -7 46 -24 61 -37
47 -40 96 -49 138 -26 56 30 74 25 96 -25 18 -39 24 -44 62 -49 24 -3 74 -12
111 -20 55 -13 93 -14 204 -6 l136 10 29 -27 c15 -15 28 -33 28 -39 0 -6 27
-29 61 -51 64 -41 87 -68 68 -80 -17 -10 71 -94 99 -94 12 0 37 7 53 16 17 8
33 14 35 11 3 -2 9 -33 15 -68 17 -102 68 -260 101 -311 16 -26 36 -72 44
-103 8 -30 30 -81 48 -112 18 -32 44 -87 56 -123 24 -66 63 -120 87 -120 8 0
19 13 24 29 6 18 20 32 35 35 14 4 22 11 18 17 -10 16 5 59 21 59 12 0 15 14
15 64 0 36 4 75 9 89 6 15 5 48 -3 91 -17 86 -12 112 23 121 37 9 71 33 71 50
0 8 18 32 41 52 22 20 54 56 70 80 17 24 47 52 68 63 41 20 54 40 55 79 1 21
8 26 41 33 22 5 47 11 55 15 8 3 30 5 48 4 29 -2 33 1 38 28 6 27 10 30 28 25
27 -9 42 -29 60 -81 16 -46 59 -99 88 -109 10 -3 16 -9 13 -13 -2 -5 7 -23 21
-42 37 -49 46 -77 45 -135 -1 -46 1 -52 21 -58 41 -10 54 -7 96 29 l41 36 13
-23 c7 -13 23 -59 36 -103 13 -44 29 -87 37 -95 23 -27 37 -201 22 -276 -4
-23 -4 -50 2 -65 7 -17 10 -19 10 -6 1 9 4 17 9 17 9 0 62 -66 62 -78 0 -5 9
-17 20 -27 13 -12 20 -31 20 -56 0 -21 5 -41 10 -44 6 -3 10 -14 10 -23 0 -9
6 -28 14 -42 7 -14 20 -38 29 -53 23 -44 131 -127 156 -120 12 3 21 9 21 14 0
13 -23 63 -37 79 -7 9 -15 44 -17 79 -3 35 -11 73 -19 85 -21 32 -90 96 -103
96 -16 0 -64 57 -64 75 0 30 -34 85 -52 85 -23 0 -24 42 -3 120 8 30 15 74 15
98 0 35 3 42 20 42 15 0 20 -7 20 -25 0 -20 5 -25 26 -25 41 0 77 -27 106 -81
16 -27 35 -49 44 -49 9 0 29 -8 46 -17 24 -15 28 -23 24 -44 -3 -15 1 -35 9
-45 13 -18 15 -18 46 11 19 17 40 39 48 49 8 10 23 26 34 35 89 71 97 82 97
129 0 25 -10 77 -22 116 -20 61 -32 80 -89 136 -36 36 -85 91 -108 122 -40 54
-42 59 -32 91 13 37 34 63 84 101 29 22 38 24 69 16 30 -9 37 -16 42 -44 4
-19 12 -36 18 -38 6 -2 -5 -14 -25 -26 -27 -15 -37 -28 -37 -46 0 -28 24 -56
48 -56 26 0 62 29 62 49 0 9 5 22 12 29 13 13 -5 42 -27 42 -9 0 -10 9 -2 40
7 26 17 40 28 40 20 0 106 37 114 49 3 5 13 7 23 4 10 -2 24 3 31 11 8 9 26
16 42 16 26 0 123 69 155 111 15 19 50 111 69 182 11 39 21 57 32 57 13 0 15
8 10 50 -5 40 -12 56 -37 77 -22 18 -28 29 -21 36 22 22 9 50 -53 115 -36 37
-74 79 -86 95 -12 15 -35 34 -51 42 -34 18 -37 44 -9 70 11 10 22 26 25 36 3
10 22 23 41 29 34 12 35 13 18 31 -9 10 -25 19 -35 19 -10 0 -30 5 -45 12 -23
11 -28 10 -45 -11 -17 -21 -23 -22 -45 -13 -13 7 -27 19 -30 27 -4 8 -14 15
-24 15 -23 0 -70 38 -70 56 0 8 13 17 29 20 19 4 31 14 35 28 3 12 19 35 36
51 25 24 34 27 48 19 9 -6 18 -25 20 -43 1 -17 3 -40 4 -51 3 -26 20 -25 55 3
39 33 74 40 117 22 35 -15 41 -28 37 -77 -2 -21 41 -51 62 -43 21 9 87 -51 69
-63 -10 -7 -8 -15 11 -38 13 -16 28 -40 32 -54 14 -48 33 -69 57 -63 13 3 30
11 38 18 8 7 25 16 38 19 29 9 28 34 -2 95 -23 44 -136 161 -156 161 -15 0
-40 31 -40 51 0 10 5 19 12 19 7 0 22 12 34 27 20 25 20 28 5 55 -15 27 -15
30 2 42 9 7 17 18 17 23 0 5 9 18 20 28 17 15 24 16 46 7 37 -17 58 -15 81 11
20 21 65 151 64 185 0 10 0 48 -1 85 0 70 -16 110 -75 192 -12 17 -25 43 -29
58 l-7 28 46 -31 c26 -18 65 -58 88 -90 23 -32 73 -102 111 -156 61 -85 70
-94 77 -75 5 11 13 21 19 21 22 0 8 20 -35 47 -25 15 -49 39 -54 53 -5 14 -12
33 -16 43 -6 14 -3 17 16 15 42 -5 26 16 -68 95 -50 42 -98 86 -106 98 -19 26
-105 99 -118 99 -5 0 -6 -6 -4 -12 3 -7 1 -19 -4 -26 -7 -11 -22 -7 -76 22
-72 38 -109 45 -118 22 -7 -17 -47 -9 -88 17 -13 8 -41 18 -61 21 -21 4 -38 8
-38 9 0 1 18 56 39 122 47 141 39 136 208 136 64 -1 115 3 118 9 3 6 25 10 48
10 29 0 48 -7 66 -24 22 -20 32 -23 71 -17 37 5 46 10 48 29 2 12 -1 22 -7 22
-6 0 -11 21 -11 49 l0 49 42 10 c39 10 46 8 102 -24 l60 -36 18 24 c20 27 22
42 8 69 -20 37 27 21 60 -21 30 -38 30 -40 15 -69 -8 -17 -15 -55 -15 -91 0
-53 -2 -60 -19 -60 -23 0 -36 -16 -21 -25 5 -3 10 -15 10 -26 0 -35 62 -104
191 -211 68 -57 140 -116 159 -131 l36 -26 11 28 c8 23 7 33 -8 52 -24 32 -24
36 7 43 l26 7 -27 35 -27 36 21 14 c21 15 21 15 -16 51 -33 31 -36 37 -20 42
15 6 12 12 -23 46 -24 23 -61 46 -88 55 -40 13 -48 20 -57 50 -5 19 -14 41
-18 48 -6 8 0 12 20 12 16 0 34 5 40 11 8 8 17 8 30 1 14 -8 25 -5 50 14 l32
24 53 -20 c61 -23 61 -23 53 -10 -3 6 -1 26 6 45 10 26 27 43 66 65 29 17 62
30 73 30 45 0 18 32 -60 69 -66 33 -77 41 -65 51 8 7 15 16 15 20 0 4 -75 57
-167 118 -155 102 -174 112 -248 127 -70 15 -281 34 -370 34 l-30 0 30 -24
c28 -23 28 -25 8 -25 -12 0 -34 5 -50 11 -16 7 -100 13 -200 14 -157 2 -174 4
-202 24 -57 41 -108 52 -236 50 -121 -1 -166 6 -310 51 -35 10 -126 23 -218
31 -87 6 -160 16 -163 20 -3 5 7 9 23 9 38 1 12 16 -51 30 -35 8 -52 7 -69 -2
-21 -11 -19 -13 28 -24 28 -7 43 -13 34 -13 -9 -1 -22 -8 -29 -16 -10 -12 -7
-17 14 -26 14 -7 26 -16 26 -21 0 -5 -5 -6 -10 -3 -6 4 -17 2 -24 -4 -8 -7
-28 -8 -57 -3 -24 5 -57 5 -72 1 -17 -5 -46 -2 -73 6 -48 14 -49 14 -33 -17
11 -20 9 -21 -28 -15 -55 9 -143 47 -143 62 0 21 -96 55 -183 65 -113 13 -134
13 -119 -2 7 -7 12 -15 12 -18 0 -12 -146 2 -179 17 -23 11 -59 14 -125 12
-50 -1 -102 0 -116 4 -14 3 -51 9 -82 12 -32 4 -58 10 -58 15 0 4 16 15 35 24
19 9 35 21 35 26 0 32 -154 73 -260 68 -36 -1 -69 0 -75 4 -5 3 -26 9 -45 13
-19 4 -39 11 -45 15 -18 14 -72 16 -106 4z m-658 -509 c-2 -5 -4 -16 -4 -24 0
-8 -9 -16 -19 -19 -10 -2 -18 -8 -18 -13 0 -5 -7 -6 -16 -2 -11 4 -14 13 -9
32 3 14 6 37 6 50 -1 12 2 27 5 32 7 12 60 -42 55 -56z m-1194 -1226 c-14 -8
-15 -14 -7 -24 13 -16 0 -49 -27 -63 -23 -13 -8 -31 46 -54 25 -11 67 -35 92
-53 25 -18 56 -36 68 -40 12 -3 31 -16 41 -28 80 -85 -92 -126 -247 -59 -98
43 -163 40 -235 -10 -31 -22 -112 -21 -159 2 -45 21 -65 94 -34 120 8 7 15 27
15 46 0 22 6 35 18 39 9 3 28 28 41 55 26 54 46 67 70 47 9 -8 34 -18 56 -22
40 -7 40 -7 18 -22 -29 -20 -29 -29 1 -37 13 -3 26 -15 29 -26 6 -23 34 -26
62 -6 11 7 32 16 46 19 15 4 29 14 33 22 4 12 -2 15 -29 15 -25 0 -35 5 -40
21 -8 25 18 48 57 49 15 0 30 5 33 10 3 6 21 10 38 10 27 -1 29 -2 14 -11z
m709 1 c23 0 34 -6 42 -25 23 -50 16 -65 -28 -65 -36 0 -40 -2 -40 -25 0 -18
-5 -25 -20 -25 -11 0 -20 -3 -20 -6 0 -12 91 -94 104 -94 19 0 48 -29 41 -41
-6 -8 21 -69 30 -69 3 0 4 10 2 22 -3 35 28 33 62 -4 34 -38 25 -51 -26 -42
-30 6 -33 4 -33 -19 0 -17 7 -26 21 -30 15 -4 19 -11 15 -25 -5 -13 0 -22 17
-29 17 -8 25 -25 35 -73 7 -34 10 -65 7 -69 -4 -3 -37 -6 -75 -6 -49 0 -73 5
-86 17 -11 9 -32 20 -47 23 -42 11 -63 58 -47 106 7 20 9 42 6 48 -4 6 2 15
15 20 l23 8 -21 11 c-35 19 -158 152 -165 179 -4 14 -19 39 -34 54 -26 27 -26
29 -10 54 9 14 27 30 40 35 13 5 26 15 29 24 8 20 87 56 112 51 11 -3 34 -5
51 -5z m-1926 -95 c10 -27 20 -31 37 -14 7 7 21 -4 46 -39 27 -38 52 -58 109
-87 97 -49 118 -70 118 -114 0 -28 13 -55 58 -118 32 -44 63 -98 70 -120 12
-39 52 -73 87 -73 17 0 17 1 -2 47 -3 7 2 15 10 19 9 3 13 12 11 19 -4 10 1
12 15 8 29 -7 26 10 -8 49 -15 18 -26 38 -24 44 2 6 -3 17 -12 24 -8 7 -15 19
-15 27 0 13 3 13 15 3 9 -7 25 -10 41 -6 25 7 25 8 10 25 -16 17 -16 19 -1 25
9 3 34 6 55 6 30 0 40 -4 45 -21 5 -14 13 -19 26 -16 18 5 18 4 2 -24 -16 -26
-16 -30 -1 -46 13 -14 14 -23 6 -36 -8 -15 -5 -24 15 -45 13 -15 32 -39 42
-54 13 -21 26 -28 49 -28 17 0 40 -7 50 -15 26 -19 62 -19 70 0 7 19 55 19 80
0 30 -23 108 -20 124 5 10 16 16 18 38 10 14 -6 30 -7 36 -4 7 4 8 2 4 -5 -4
-6 -4 -17 1 -24 16 -21 13 -98 -7 -161 -10 -34 -21 -77 -24 -97 -9 -53 -36
-73 -83 -63 -21 4 -42 8 -48 9 -5 0 -20 6 -32 13 -30 17 -50 15 -98 -9 l-42
-21 -67 21 c-38 12 -86 21 -107 21 -21 0 -39 5 -39 10 0 6 -9 10 -20 10 -23 0
-69 19 -92 38 -9 8 -40 15 -68 15 -46 2 -55 -1 -77 -27 -19 -23 -23 -36 -19
-61 5 -24 1 -36 -13 -49 -19 -18 -23 -17 -95 13 -41 17 -82 31 -90 31 -9 0
-25 14 -36 32 -21 36 -85 67 -138 67 -42 1 -101 26 -108 46 -3 8 -13 15 -20
15 -22 0 -28 29 -11 48 21 23 31 68 18 76 -14 9 -14 53 -1 61 20 13 9 25 -16
19 -18 -5 -25 -3 -21 3 12 20 -24 23 -70 8 -33 -11 -54 -13 -80 -6 -23 7 -44
6 -61 -1 -15 -5 -65 -11 -112 -13 -97 -3 -163 -18 -201 -46 -15 -10 -35 -19
-44 -19 -10 0 -32 -9 -50 -20 -27 -16 -42 -19 -98 -13 -48 4 -71 11 -84 25
-17 19 -17 21 6 39 17 14 39 19 86 19 56 0 64 3 79 25 10 14 28 30 42 35 14 6
24 18 24 29 0 10 7 24 15 31 11 9 14 22 10 42 -10 42 39 116 82 124 40 8 75
45 78 84 2 17 6 34 10 38 4 4 43 7 88 7 76 0 86 3 130 33 26 17 55 32 63 32
33 0 72 -30 79 -60 8 -34 104 -117 147 -127 15 -3 33 -12 39 -19 6 -8 18 -14
25 -14 8 0 19 -9 26 -20 7 -11 17 -20 23 -20 18 0 45 -60 39 -85 -7 -30 -26
-36 -109 -36 -61 0 -66 -2 -63 -20 2 -15 23 -29 73 -50 38 -16 71 -29 72 -29
2 0 3 21 3 46 0 37 3 45 15 40 9 -3 21 5 32 22 10 15 23 31 30 35 18 11 16 44
-2 51 -21 8 -19 33 5 46 31 16 24 35 -20 55 -21 10 -38 23 -37 29 1 6 -10 12
-24 14 -25 3 -42 17 -136 114 -47 47 -56 89 -25 107 26 15 32 13 42 -14z
m3040 -450 c0 -8 5 -15 10 -15 6 0 10 -8 10 -19 0 -10 9 -29 20 -43 14 -18 16
-28 8 -36 -8 -8 -8 -19 1 -39 8 -19 9 -42 3 -68 -7 -32 -12 -40 -30 -39 -24 1
-26 -4 -13 -25 7 -10 3 -23 -10 -40 -11 -14 -19 -36 -17 -50 3 -22 -2 -26 -34
-34 -21 -5 -38 -13 -38 -18 0 -5 -8 -9 -18 -9 -27 0 -42 -20 -42 -57 0 -41
-22 -51 -129 -60 -58 -4 -85 -2 -114 11 -37 15 -38 16 -23 38 24 34 20 67 -8
78 -31 11 -67 87 -55 112 6 10 5 19 -1 23 -5 3 -10 33 -10 67 0 51 2 59 16 54
46 -18 61 -16 87 8 14 13 36 27 47 31 14 4 20 15 20 35 0 20 6 31 20 35 11 3
20 11 20 17 0 6 7 7 18 3 49 -20 172 -26 179 -8 3 7 14 13 24 13 14 0 19 7 19
25 0 18 5 25 20 25 11 0 20 -7 20 -15z m-1753 -738 c34 -51 64 -102 67 -114 4
-11 22 -33 41 -48 41 -31 65 -73 65 -112 0 -41 34 -102 75 -135 19 -16 48 -58
65 -94 17 -35 35 -64 40 -64 16 0 43 -64 51 -120 4 -30 13 -76 20 -103 10 -36
10 -50 1 -59 -9 -9 -23 0 -60 38 -26 28 -70 69 -98 92 -41 33 -56 54 -73 102
-19 52 -62 110 -82 110 -9 0 -41 117 -38 138 6 38 -14 83 -52 116 -28 26 -39
44 -39 64 0 16 -13 47 -29 70 -36 49 -87 139 -96 170 -5 16 -2 22 10 22 8 0
18 6 21 14 3 7 14 11 28 9 15 -3 42 -34 83 -96z m-69 -1689 c19 -19 13 -60
-12 -92 -14 -16 -22 -35 -19 -43 4 -9 -4 -13 -26 -14 -17 -1 -36 -2 -43 -3
-15 -1 -11 113 5 133 24 28 75 39 95 19z"/>
<path d="M8156 6221 c-16 -17 -16 -23 -4 -47 18 -38 34 -40 41 -6 6 31 -1 72
-13 72 -4 0 -15 -9 -24 -19z"/>
<path d="M8153 6123 c-20 -4 -21 -9 -16 -61 6 -65 14 -78 40 -67 10 5 21 8 24
7 4 -1 9 17 13 39 6 37 -14 92 -33 88 -3 -1 -16 -4 -28 -6z"/>
<path d="M3287 8196 c-128 -38 -135 -67 -12 -46 41 7 78 10 81 7 4 -3 -15 -16
-41 -29 -43 -21 -45 -23 -23 -29 12 -4 41 -7 62 -8 37 -1 39 -2 20 -16 -18
-14 -18 -14 7 -15 14 0 70 7 125 15 54 8 117 15 139 15 24 0 54 9 75 22 l35
23 -33 3 c-27 3 -32 7 -27 23 5 14 2 19 -14 19 -37 0 -71 -19 -71 -40 0 -27
-41 -27 -78 0 -17 13 -46 21 -75 23 -26 1 -47 4 -47 7 0 3 17 15 38 27 l37 22
-60 0 c-33 0 -95 -10 -138 -23z"/>
<path d="M10110 8175 c-25 -7 -65 -14 -90 -15 -66 -2 -206 -52 -202 -72 1 -9
-9 -25 -23 -36 -17 -14 -21 -22 -13 -25 9 -4 6 -12 -10 -26 -13 -11 -20 -26
-16 -32 3 -6 1 -15 -6 -19 -22 -14 -3 -37 36 -45 21 -3 47 -13 58 -21 27 -19
75 -18 83 2 3 8 -4 25 -16 38 -27 29 -27 36 7 89 35 57 86 86 197 112 75 18
90 24 90 41 0 24 -32 27 -95 9z"/>
<path d="M3952 8165 c-35 -7 -71 -20 -80 -29 -15 -15 -14 -16 12 -16 23 0 26
-3 17 -14 -16 -19 8 -24 66 -16 43 7 113 52 113 73 0 16 -52 17 -128 2z"/>
<path d="M12884 8135 c-9 -22 3 -33 54 -48 32 -9 77 -12 144 -8 91 6 96 7 83
24 -25 34 -270 62 -281 32z"/>
<path d="M4120 8123 c-34 -5 -80 -24 -80 -32 0 -4 12 -12 28 -17 27 -10 27
-10 -26 -34 -29 -12 -61 -34 -72 -47 -14 -18 -25 -23 -40 -18 -27 9 -25 19 8
35 26 14 26 14 -33 20 -72 8 -132 -9 -127 -35 3 -13 -3 -16 -30 -14 -58 5 -62
-9 -13 -47 28 -21 56 -34 75 -34 33 0 40 -19 15 -40 -8 -7 -15 -19 -15 -26 0
-17 -8 -17 -39 0 -21 12 -30 11 -70 -7 -59 -25 -58 -23 -30 -46 24 -20 24 -20
3 -21 -12 0 -28 -9 -35 -20 -12 -16 -27 -20 -85 -21 -38 -1 -80 3 -91 10 -12
6 -33 11 -46 11 -21 0 -37 16 -37 37 0 3 27 2 59 -2 67 -8 101 -1 101 21 0 9
11 14 34 14 18 0 39 6 45 14 10 12 4 19 -29 37 -22 12 -40 27 -40 33 0 16 40
80 56 89 23 13 16 37 -11 37 -18 0 -23 -4 -19 -15 5 -12 2 -13 -16 -7 -36 13
-64 3 -82 -29 -19 -33 -43 -39 -35 -9 7 28 -7 33 -49 20 -26 -9 -39 -9 -47 -1
-6 6 -26 11 -44 11 -18 0 -33 5 -33 10 0 6 -5 10 -11 10 -6 0 -19 10 -29 22
-14 18 -32 24 -96 29 -101 10 -204 1 -204 -17 0 -7 -44 -34 -97 -59 -91 -43
-97 -47 -79 -61 11 -8 23 -14 28 -14 4 0 8 -7 8 -16 0 -10 6 -14 18 -10 9 3
35 8 57 12 22 3 49 12 60 18 39 24 58 28 51 11 -3 -9 -2 -13 3 -10 5 3 13 0
17 -6 4 -6 -1 -16 -10 -21 -23 -13 -20 -26 7 -31 21 -3 21 -4 -5 -15 -20 -8
-25 -16 -21 -31 4 -16 13 -21 39 -21 22 0 37 -6 40 -15 5 -12 25 -15 93 -15
78 0 87 -2 88 -19 2 -23 -45 -48 -53 -27 -4 10 -28 12 -107 9 -85 -3 -98 -1
-77 9 35 17 34 16 20 33 -7 8 -29 15 -49 15 -37 0 -111 18 -168 41 -26 10 -39
10 -72 -1 -23 -7 -44 -10 -49 -5 -4 4 -1 10 6 12 6 3 12 9 12 13 0 5 -20 1
-45 -10 l-46 -20 -9 25 c-11 29 -16 30 -65 9 -27 -11 -40 -12 -45 -4 -5 8 -29
6 -86 -6 -43 -10 -92 -17 -109 -16 -16 1 -63 -8 -103 -20 -70 -20 -75 -21
-105 -5 -42 22 -167 57 -183 50 -7 -2 -52 1 -101 7 -48 7 -103 12 -122 11 -18
-1 -40 4 -47 10 -8 6 -32 12 -54 13 -22 0 -40 4 -40 8 0 16 -42 18 -97 4 -32
-7 -65 -14 -73 -13 -48 2 -241 -45 -266 -64 -19 -15 -107 -39 -145 -39 -20 0
-53 -7 -74 -16 -37 -15 -37 -15 -16 -31 12 -8 21 -22 20 -31 -1 -10 1 -25 5
-34 11 -25 -1 -38 -35 -38 -20 0 -28 4 -23 12 9 15 -74 5 -171 -20 -67 -17
-69 -19 -71 -50 -1 -28 2 -32 30 -37 17 -3 59 -4 94 -2 46 4 62 2 62 -8 0 -29
-54 -47 -180 -62 -55 -6 -230 -87 -230 -106 0 -8 -8 -22 -19 -31 -15 -14 -17
-21 -8 -39 8 -18 17 -22 44 -19 18 2 33 1 33 -2 0 -3 -15 -20 -32 -37 l-33
-31 42 6 c29 4 43 2 43 -5 0 -8 4 -8 15 1 12 10 15 10 15 -4 0 -12 5 -14 25
-6 13 5 27 5 30 1 11 -19 -55 -58 -178 -105 -70 -28 -127 -53 -127 -57 0 -18
55 -14 107 8 32 14 87 36 123 50 36 13 81 31 100 38 19 8 43 14 53 15 17 0 17
-1 3 -16 -9 -8 -16 -21 -16 -29 0 -11 7 -11 43 0 76 24 107 39 107 52 0 6 -15
13 -32 15 l-33 3 47 23 c26 13 48 30 50 39 2 9 30 25 66 38 l63 23 -18 -22
c-10 -11 -22 -24 -28 -28 -18 -14 28 -8 104 12 41 11 81 20 90 20 8 0 26 11
40 24 34 32 68 34 111 8 37 -23 46 -25 96 -22 47 2 113 -28 129 -61 20 -38 31
-43 100 -49 47 -4 59 -8 55 -20 -2 -8 -4 -33 -5 -55 0 -22 -6 -50 -13 -63 -11
-19 -10 -25 3 -38 11 -11 12 -20 5 -34 -6 -11 -8 -31 -4 -44 3 -13 0 -34 -6
-46 -10 -18 -9 -25 3 -38 14 -13 13 -18 -5 -43 -13 -17 -19 -37 -16 -53 6 -28
4 -29 -27 -17 -11 5 -25 4 -32 -1 -17 -14 -16 -48 1 -48 7 0 21 -12 31 -26 9
-14 25 -34 35 -44 17 -17 17 -20 0 -73 -10 -30 -26 -70 -35 -88 -25 -47 -98
-149 -129 -178 -14 -13 -28 -38 -32 -55 -3 -17 -20 -51 -37 -76 -18 -27 -30
-56 -29 -73 2 -15 -2 -36 -8 -47 -7 -13 -7 -27 1 -47 6 -15 11 -48 10 -74 -1
-25 6 -67 14 -95 8 -27 15 -59 15 -72 0 -17 7 -24 30 -28 17 -4 30 -10 30 -15
0 -5 5 -9 11 -9 7 0 22 -11 35 -26 18 -19 24 -37 24 -72 0 -94 19 -174 50
-208 33 -38 31 -71 -6 -80 -13 -3 -24 -10 -24 -15 0 -13 55 -69 67 -69 5 0 20
-11 32 -24 18 -19 21 -31 16 -57 -5 -30 -2 -38 33 -72 26 -25 44 -36 55 -31
19 7 23 30 5 36 -12 4 -37 87 -38 125 0 13 -9 37 -20 55 -11 18 -20 43 -20 55
0 12 -14 46 -31 75 -28 47 -30 57 -24 105 7 58 7 58 54 42 24 -8 31 -16 28
-29 -7 -27 18 -143 38 -173 9 -15 24 -27 31 -27 8 0 14 -10 14 -23 0 -13 9
-33 21 -46 14 -15 19 -30 15 -46 -5 -18 0 -28 16 -40 22 -15 50 -50 104 -129
36 -53 55 -130 40 -162 -6 -13 -14 -24 -19 -24 -12 0 23 -74 40 -84 9 -5 29
-21 45 -37 16 -15 43 -31 60 -34 17 -4 50 -22 74 -40 24 -18 60 -39 81 -45 21
-7 49 -19 63 -26 75 -40 97 -44 151 -24 69 24 94 14 159 -61 30 -34 63 -61 78
-65 15 -3 56 -17 91 -31 38 -15 73 -22 87 -19 18 5 22 3 18 -8 -3 -8 3 -23 13
-33 41 -42 69 -90 72 -123 3 -36 36 -80 43 -58 6 18 68 -30 68 -52 0 -22 36
-45 65 -42 18 3 31 -5 82 -48 29 -24 61 -4 44 28 -8 15 -3 23 25 45 28 23 38
26 54 17 11 -6 20 -14 21 -18 4 -44 11 -65 29 -89 17 -24 21 -44 22 -123 2
-100 -16 -160 -47 -160 -12 0 -29 -20 -35 -42 -1 -4 -4 -16 -7 -27 -3 -10 -19
-27 -37 -36 -17 -9 -32 -25 -33 -34 -1 -21 -26 -84 -36 -92 -11 -8 -6 -81 6
-97 5 -7 18 -10 28 -7 11 4 19 3 19 -2 0 -13 -31 -56 -54 -74 -19 -16 -20 -21
-14 -122 1 -25 10 -38 39 -59 20 -14 45 -42 55 -61 11 -20 49 -94 86 -166 37
-72 78 -147 92 -168 14 -21 26 -45 26 -55 0 -51 63 -107 218 -194 45 -25 82
-51 82 -58 0 -6 13 -19 29 -29 19 -11 32 -30 40 -59 15 -53 33 -557 21 -597
-4 -16 -6 -31 -4 -34 3 -2 9 -38 14 -78 5 -41 15 -93 22 -116 9 -33 10 -73 1
-178 -6 -75 -16 -141 -22 -148 -7 -9 -2 -30 15 -72 15 -37 27 -87 29 -130 7
-112 27 -189 49 -193 17 -4 18 0 13 32 -6 37 2 46 21 23 11 -13 27 -117 19
-117 -3 0 -17 4 -31 10 -26 10 -26 10 -19 -33 8 -49 8 -74 -2 -103 -6 -19 -2
-22 30 -28 36 -7 36 -8 21 -31 -9 -13 -16 -35 -16 -49 0 -33 52 -147 79 -170
11 -11 21 -27 21 -36 0 -21 33 -56 61 -65 14 -5 18 -10 10 -14 -26 -17 161
-122 271 -152 80 -23 112 -24 130 -5 9 8 26 11 47 8 21 -3 36 0 41 9 12 19 5
26 -37 34 -21 4 -51 14 -68 22 -43 22 -128 103 -108 103 11 0 4 11 -20 35 -48
47 -57 82 -29 106 15 12 22 28 22 52 0 26 6 39 26 51 36 24 31 76 -8 87 -45
12 -88 48 -88 73 0 28 15 42 53 51 27 7 28 9 22 54 -5 38 -3 50 14 67 11 12
25 24 32 26 23 8 1 39 -23 33 -27 -6 -41 2 -57 32 -18 36 -14 46 17 38 66 -18
123 4 104 41 -5 11 -12 35 -15 55 l-5 36 71 5 c98 7 149 33 165 86 17 55 15
75 -8 90 -11 7 -20 23 -20 37 0 14 -9 30 -20 37 -30 19 -24 31 13 24 139 -29
160 -22 206 69 17 33 31 64 31 68 0 5 17 28 38 52 20 23 45 65 55 92 10 28 30
66 44 84 23 32 24 39 19 112 -6 71 -4 81 16 110 33 46 68 75 108 88 19 7 47
21 61 31 16 12 50 22 88 25 53 5 64 9 71 29 5 12 18 28 30 34 13 7 20 21 20
39 0 16 14 55 30 86 17 32 30 73 30 92 0 19 5 44 11 55 6 12 12 81 13 159 1
129 3 140 22 154 12 8 33 38 47 67 14 29 48 80 76 112 63 74 80 138 61 226
-18 79 -25 89 -72 97 -30 4 -56 19 -88 48 -77 70 -124 95 -178 95 -27 0 -71 7
-99 15 -37 11 -58 12 -77 5 -22 -8 -26 -7 -26 9 0 33 -33 59 -113 87 -74 25
-78 26 -96 9 -19 -16 -20 -16 -23 12 -3 26 -7 28 -51 31 -54 4 -67 19 -43 54
22 30 20 60 -4 81 -11 9 -20 23 -20 30 0 27 -31 117 -40 117 -6 0 -26 17 -45
39 -43 47 -115 72 -201 68 -56 -2 -63 0 -100 32 -21 19 -44 47 -51 62 -11 27
-77 79 -100 79 -7 0 -13 8 -13 18 0 10 -12 29 -26 43 l-26 24 24 6 23 5 -23 6
c-13 4 -28 0 -37 -9 -16 -16 -35 -10 -35 12 0 7 10 16 23 18 12 2 -8 5 -45 6
-55 1 -72 -3 -87 -18 -21 -21 -54 -19 -82 5 -11 10 -30 12 -62 8 -43 -6 -48
-4 -72 25 -15 17 -36 31 -47 31 -12 0 -22 8 -25 20 -7 26 -27 21 -31 -8 -3
-18 -44 -42 -73 -42 -15 0 -10 28 6 34 20 7 19 42 -1 50 -10 4 -31 -7 -55 -28
-28 -24 -54 -35 -88 -40 -55 -7 -86 -32 -96 -77 -7 -31 -59 -88 -82 -89 -6 0
-24 11 -40 24 -45 38 -83 41 -142 11 -63 -31 -86 -26 -126 27 -56 77 -58 83
-45 156 6 37 16 85 22 107 21 79 20 88 -18 114 -36 25 -39 25 -184 21 -30 -1
-64 -1 -75 -1 -19 2 -19 2 -2 16 11 8 25 41 34 79 8 37 18 64 23 61 8 -5 32
53 35 85 1 8 14 33 29 54 14 22 25 44 23 50 -6 18 -99 17 -151 -2 -46 -16 -50
-20 -66 -70 -10 -29 -26 -59 -36 -67 -11 -7 -58 -23 -107 -35 -79 -19 -89 -20
-103 -6 -8 9 -24 16 -35 16 -14 0 -27 17 -47 63 -49 105 -56 153 -36 233 9 38
26 87 37 109 11 22 22 60 24 85 4 62 20 87 73 118 25 14 65 39 89 56 40 29 49
31 117 29 51 -1 79 -7 90 -17 10 -10 31 -15 59 -14 44 2 45 3 45 35 0 19 5 34
13 34 6 1 48 3 92 3 72 2 82 0 102 -22 21 -22 23 -23 53 -7 36 18 44 15 66
-27 11 -22 14 -43 9 -74 -11 -79 49 -213 89 -198 8 3 22 24 31 47 18 44 16
102 -6 230 -13 76 0 114 56 166 25 23 48 41 53 41 5 0 26 16 48 35 21 19 46
35 55 35 9 0 23 7 30 16 8 9 32 25 54 34 22 10 50 28 61 41 23 26 40 104 25
113 -5 4 -5 21 2 41 7 23 14 32 20 26 7 -7 6 -16 -3 -26 -7 -8 -10 -18 -7 -21
3 -3 21 15 40 40 24 32 33 53 30 69 -4 18 -3 19 6 7 10 -13 17 -9 46 24 19 22
35 45 35 51 0 7 27 18 60 25 32 7 58 17 57 23 -2 9 19 16 101 33 13 3 22 11
21 22 0 10 -3 12 -6 5 -9 -23 -23 -14 -23 15 0 34 52 87 95 98 44 10 133 51
151 69 17 17 74 21 74 5 0 -5 -3 -10 -7 -10 -18 -1 -42 -28 -48 -53 -6 -23 -4
-27 14 -27 12 0 45 13 74 29 28 16 85 39 125 51 40 11 88 30 107 41 32 19 33
21 17 38 -16 17 -18 17 -48 0 -17 -11 -39 -19 -49 -19 -17 0 -17 1 0 20 18 20
17 20 -18 20 -24 0 -39 6 -46 17 -8 14 -12 15 -25 4 -14 -12 -16 -8 -16 32 0
34 5 49 18 56 47 28 48 29 27 45 -26 20 -73 20 -118 1 -20 -8 -43 -15 -52 -15
-26 0 -16 17 18 31 17 7 46 23 64 36 30 23 37 24 180 21 148 -3 150 -3 190 24
23 15 54 30 70 34 15 3 36 8 47 11 23 6 -83 -127 -120 -152 -14 -9 -23 -19
-20 -22 3 -4 -1 -15 -11 -25 -23 -26 -10 -33 65 -34 115 -3 108 -1 87 -24 -27
-30 2 -26 45 5 41 30 54 32 40 6 -16 -31 -12 -41 18 -41 35 0 55 31 57 88 2
33 -1 42 -12 38 -10 -4 -12 1 -7 19 7 26 4 28 -51 29 -22 1 -30 6 -29 18 1 10
-7 20 -18 24 -18 5 -16 10 23 51 l44 45 -30 -5 -30 -5 28 22 c39 31 50 101 18
111 -14 4 -21 15 -21 30 0 26 -33 55 -65 55 -11 0 -37 16 -57 35 -33 31 -36
37 -26 62 8 23 5 45 -18 120 l-29 93 -50 -40 c-28 -22 -70 -50 -94 -61 -38
-18 -46 -19 -55 -7 -6 8 -19 17 -28 21 -16 6 -16 10 -3 52 7 25 19 52 25 60
10 13 8 15 -17 15 -21 0 -42 12 -71 40 -38 37 -43 39 -84 34 -24 -3 -61 -1
-82 4 -20 6 -47 7 -58 3 -20 -7 -67 -99 -68 -133 0 -9 -20 -31 -45 -48 -42
-29 -44 -32 -31 -53 17 -27 22 -64 12 -94 -12 -37 -114 -103 -181 -117 -29 -6
-30 -9 -31 -60 0 -43 -6 -63 -29 -96 -16 -23 -40 -47 -53 -53 -21 -10 -28 -8
-49 18 -22 25 -25 35 -20 82 3 29 15 69 26 87 25 39 17 46 -50 46 -43 0 -107
29 -156 71 -39 34 -96 53 -134 45 -33 -6 -36 4 -20 62 8 28 7 32 -9 32 -32 0
-33 19 -5 56 50 65 216 174 265 174 12 0 31 10 43 23 27 27 69 47 103 47 13 0
52 14 85 31 34 17 63 29 65 27 7 -8 -29 -50 -60 -69 l-31 -19 28 0 c17 0 27
-5 27 -15 0 -12 13 -10 71 11 51 18 74 23 79 14 9 -15 87 -17 102 -2 10 10 8
14 -10 18 -12 4 -22 13 -22 20 0 8 -4 14 -9 14 -4 0 -25 11 -45 25 -20 13 -36
22 -36 20 0 -3 -8 3 -18 13 -27 25 -10 37 56 39 33 1 82 11 117 25 49 20 61
29 63 50 2 14 13 31 27 38 30 16 39 38 24 56 -9 12 -4 14 32 14 24 0 59 4 77
9 24 7 42 6 67 -5 38 -16 44 -28 19 -42 -13 -7 -9 -11 21 -16 49 -10 85 -33
85 -57 0 -11 -17 -28 -45 -45 -25 -14 -53 -36 -63 -49 -15 -19 -31 -24 -103
-30 -85 -7 -139 -31 -124 -55 7 -12 111 -12 140 0 26 10 96 -27 93 -49 -4 -21
81 -66 154 -81 32 -7 61 -10 64 -7 4 3 -4 22 -16 42 l-22 35 52 -20 c50 -20
54 -20 71 -4 12 11 19 31 19 55 0 31 -5 41 -30 56 -31 18 -48 50 -33 63 4 4
20 10 35 14 22 5 30 1 48 -24 38 -54 53 -55 117 -13 60 40 73 66 37 71 -12 2
-27 14 -34 28 -9 15 -28 28 -54 35 -22 6 -49 17 -59 24 -17 12 -16 14 17 25
32 10 35 14 30 38 -10 40 -21 50 -65 57 -22 4 -45 15 -53 27 -12 17 -21 19
-50 14 -28 -5 -36 -4 -36 8 0 7 -19 23 -42 35 -40 19 -41 21 -15 21 33 0 35
13 5 34 -29 20 -121 21 -137 2 -8 -10 -9 -16 -1 -21 14 -9 13 -26 -2 -22 -7 1
-18 15 -25 31 -12 27 -15 28 -60 21 -27 -4 -68 -15 -92 -26 -51 -22 -51 -22
-51 -9 0 6 11 16 25 22 42 19 28 25 -37 16 -81 -11 -164 -51 -189 -91 -12 -21
-15 -33 -7 -38 6 -4 4 -10 -8 -17 -17 -10 -17 -11 6 -21 14 -5 42 -12 63 -16
20 -3 37 -8 37 -11 0 -30 -128 -134 -164 -134 -20 0 -21 24 -1 40 17 14 19 29
6 48 -7 12 -14 11 -40 -2 -31 -17 -41 -10 -19 12 9 9 6 14 -13 21 -21 8 -22
10 -6 16 22 9 23 67 1 85 -13 12 -12 16 14 32 16 10 55 25 86 33 31 8 74 24
94 34 l37 19 -50 7 c-77 10 -83 14 -50 31 16 8 31 16 32 18 6 5 -9 36 -16 35
-3 -1 -17 -4 -31 -6z m-701 -1529 c21 -4 31 -12 31 -24 0 -10 9 -20 20 -23 16
-4 20 -12 18 -39 l-2 -33 -65 0 c-75 0 -98 9 -80 31 16 20 2 18 -72 -9 -53
-20 -68 -22 -87 -12 -22 12 -20 13 29 36 28 13 75 36 103 51 56 30 60 31 105
22z m237 -176 c6 -7 14 -25 18 -40 5 -21 2 -28 -14 -33 -11 -3 -25 -3 -30 0
-15 9 -59 -21 -72 -51 -13 -29 -38 -32 -38 -4 0 11 -7 20 -15 20 -12 0 -13 4
-5 19 14 28 12 52 -7 73 -15 17 -15 18 0 18 10 0 17 5 17 11 0 16 130 4 146
-13z m-263 -20 c2 -7 -13 -30 -35 -52 -21 -21 -41 -50 -44 -65 -11 -56 -20
-75 -47 -94 -66 -50 -55 48 16 136 24 28 46 60 50 70 7 20 53 23 60 5z m395
-115 c2 -9 -8 -13 -32 -13 -20 0 -36 4 -36 9 0 22 60 25 68 4z m-178 -73 c0
-6 -21 -20 -46 -30 -78 -34 -115 -21 -51 18 34 22 97 29 97 12z"/>
<path d="M4510 7713 l-22 -28 25 -3 c32 -4 87 24 87 43 0 10 -11 15 -34 15
-26 0 -40 -7 -56 -27z"/>
<path d="M6990 7635 c-19 -7 -46 -11 -58 -8 -13 3 -41 0 -62 -7 -33 -11 -41
-10 -61 4 -32 22 -92 21 -112 -2 -23 -26 -21 -32 11 -32 46 0 60 -17 21 -25
l-34 -8 35 -14 34 -15 -23 -13 c-22 -11 -17 -14 65 -25 78 -11 97 -11 154 4
64 17 170 64 170 75 0 4 -9 12 -21 19 -15 10 -19 20 -15 38 6 22 4 24 -31 23
-21 0 -54 -6 -73 -14z"/>
<path d="M4100 7446 c0 -9 30 -14 35 -6 4 6 -3 10 -14 10 -12 0 -21 -2 -21 -4z"/>
<path d="M7459 7177 c-25 -35 -41 -89 -29 -101 5 -5 10 -25 10 -43 0 -18 5
-33 10 -33 6 0 10 5 10 10 0 6 5 10 10 10 6 0 8 -11 4 -25 -5 -20 -2 -25 23
-31 36 -9 63 -32 63 -56 0 -14 -8 -18 -35 -18 -40 0 -55 -21 -36 -51 10 -17 8
-21 -15 -29 -22 -9 -24 -13 -14 -25 7 -8 22 -15 33 -15 20 0 20 0 -1 -23 -12
-13 -22 -28 -22 -34 0 -22 58 -31 77 -12 6 6 50 13 98 16 98 5 141 23 126 52
-6 11 -4 23 5 36 21 29 17 42 -16 49 -23 4 -35 16 -52 51 -12 25 -29 47 -37
50 -9 3 -26 23 -39 45 -15 26 -30 40 -43 40 -20 0 -20 0 -1 28 10 15 21 37 25
50 5 23 -5 27 -62 22 l-24 -2 22 31 22 31 -48 0 c-38 -1 -51 -5 -64 -23z"/>
<path d="M7298 6953 c-49 -36 -52 -43 -39 -78 5 -13 2 -30 -10 -49 -22 -36
-17 -46 21 -46 76 0 150 58 150 117 0 16 6 35 13 42 10 10 7 16 -12 32 -34 27
-69 22 -123 -18z"/>
<path d="M14864 6357 c-2 -7 2 -30 11 -50 l15 -37 -26 0 c-24 0 -25 -3 -19
-27 12 -52 47 -93 79 -93 26 0 28 3 24 30 -5 35 5 37 59 15 19 -8 37 -15 39
-15 1 0 4 14 6 32 2 24 9 34 26 38 31 7 31 13 3 50 -17 23 -26 29 -34 21 -17
-17 -40 -13 -103 19 -67 34 -73 35 -80 17z"/>
<path d="M14930 6114 c0 -14 11 -40 24 -57 13 -18 27 -49 30 -70 6 -32 2 -46
-21 -83 -27 -43 -46 -54 -58 -34 -14 23 -25 7 -25 -39 l0 -48 -77 -6 c-43 -3
-79 -11 -81 -16 -4 -13 -62 -87 -91 -116 -18 -19 -18 -22 -3 -42 9 -11 27 -26
40 -32 12 -7 22 -21 22 -31 0 -11 9 -29 21 -41 32 -32 49 -10 49 65 0 33 4 56
8 50 4 -6 17 -14 30 -18 18 -6 22 -4 22 14 0 17 5 21 28 18 21 -2 28 1 30 19
3 20 5 20 30 7 37 -19 37 -19 62 21 19 31 26 35 65 35 59 0 105 27 105 62 0
15 -4 29 -9 32 -5 3 -12 22 -16 42 -3 20 -13 48 -22 61 -11 16 -14 36 -10 63
4 32 0 48 -20 78 -43 64 -75 92 -105 92 -23 0 -28 -4 -28 -26z"/>
<path d="M14329 5097 c-28 -38 -38 -90 -24 -123 13 -31 42 -60 51 -51 3 3 10
42 16 87 7 61 7 85 -2 96 -16 19 -22 18 -41 -9z"/>
<path d="M3155 4976 c-24 -7 -41 -19 -43 -29 -4 -18 22 -24 33 -7 3 6 17 10
31 10 14 0 23 -4 19 -9 -7 -12 26 -31 53 -31 11 0 33 -7 48 -15 16 -8 39 -15
51 -15 13 0 24 -8 28 -21 4 -11 23 -28 43 -36 l37 -15 -24 -19 -23 -19 70 0
c82 0 132 9 132 23 0 14 -32 36 -52 37 -10 0 -18 4 -18 9 0 5 -10 13 -22 17
-13 4 -43 24 -67 45 -32 29 -53 39 -77 39 -19 0 -34 4 -34 9 0 25 -128 43
-185 27z"/>
<path d="M3655 4772 c-9 -10 -5 -22 8 -22 7 0 18 -13 24 -30 11 -28 10 -30
-13 -30 -15 0 -24 -6 -24 -15 0 -11 11 -15 39 -15 25 0 41 -5 45 -15 8 -21 23
-19 31 5 4 11 15 20 28 20 12 1 42 1 67 2 25 1 48 6 52 11 9 15 -2 37 -18 37
-8 0 -14 5 -14 10 0 6 -7 10 -15 10 -8 0 -15 4 -15 9 0 5 -12 12 -27 16 -34 9
-160 14 -168 7z"/>
<path d="M3400 4680 c-7 -4 -10 -15 -7 -25 8 -20 62 -17 62 4 0 17 -37 32 -55
21z"/>
<path d="M14387 4684 c-4 -4 -7 -38 -7 -76 0 -45 -4 -67 -10 -63 -7 4 -8 -3
-4 -22 11 -47 21 -67 43 -90 12 -12 21 -29 21 -37 0 -8 6 -17 13 -19 6 -3 2
-6 -11 -6 l-23 -1 21 -30 c12 -16 27 -30 35 -30 20 0 26 27 10 44 -8 7 -11 16
-8 20 12 11 50 6 63 -8 6 -8 17 -13 24 -10 8 3 16 -2 19 -10 4 -9 16 -16 27
-16 15 0 20 7 20 28 0 23 -7 32 -35 45 -20 9 -49 17 -65 17 -34 0 -50 23 -50
73 0 23 6 37 16 41 12 5 15 15 11 44 -12 81 -19 101 -36 101 -9 0 -27 3 -41 6
-14 4 -29 3 -33 -1z"/>
<path d="M14675 4271 c5 -24 3 -31 -9 -31 -19 0 -21 -14 -3 -32 7 -7 16 -22
21 -33 9 -26 26 -2 18 27 -4 17 -1 19 16 14 19 -7 20 -5 8 36 -10 32 -19 44
-36 46 -20 3 -21 1 -15 -27z"/>
<path d="M14520 4229 c0 -46 9 -60 32 -48 28 15 32 6 14 -29 -14 -28 -14 -30
8 -49 l24 -21 21 40 c11 22 21 54 21 71 0 29 -1 30 -15 11 -9 -12 -14 -14 -15
-6 0 7 -4 10 -10 7 -6 -3 -10 5 -10 18 0 21 -6 25 -35 29 -32 4 -35 2 -35 -23z"/>
<path d="M12183 4103 c-14 -48 -7 -146 11 -181 15 -29 21 -33 44 -27 41 10 52
24 52 64 0 46 -43 134 -75 155 -24 16 -25 15 -32 -11z"/>
<path d="M14725 4111 c5 -15 1 -23 -12 -28 -10 -4 -26 -16 -35 -28 -14 -17
-20 -18 -38 -7 -18 11 -25 9 -55 -14 -23 -17 -35 -35 -35 -50 0 -29 1 -29 49
-5 42 19 75 12 65 -14 -12 -31 6 -65 45 -85 33 -17 40 -17 45 -5 3 9 1 27 -5
42 -14 39 5 53 24 17 l15 -29 7 36 c7 35 -8 132 -23 155 -4 6 -18 17 -30 23
-22 12 -23 11 -17 -8z"/>
<path d="M14235 3921 c-8 -16 -37 -49 -65 -72 -27 -23 -64 -64 -81 -91 -20
-31 -40 -50 -58 -54 -56 -12 -62 -16 -76 -50 -15 -36 -49 -46 -73 -22 -21 21
-51 -30 -51 -87 -1 -52 30 -135 49 -135 5 0 10 -15 10 -32 0 -46 11 -58 56
-65 21 -3 42 -11 46 -16 4 -7 17 -7 40 -1 37 11 93 -6 114 -34 10 -14 16 -14
39 -4 22 10 30 10 36 1 8 -14 39 85 39 126 0 17 9 34 25 47 16 13 25 29 25 48
0 54 16 80 50 80 37 0 38 12 5 38 -14 11 -25 28 -25 37 0 10 -9 32 -19 49 -22
37 -15 66 23 92 14 9 23 20 20 25 -3 5 5 18 18 28 l23 19 -47 21 c-27 11 -48
27 -48 34 0 16 -31 47 -48 47 -6 0 -18 -13 -27 -29z"/>
<path d="M13050 3856 c0 -24 33 -65 174 -216 18 -20 39 -53 46 -75 7 -22 25
-56 40 -75 15 -19 41 -63 59 -97 32 -64 108 -173 121 -173 4 0 27 -20 51 -45
36 -37 50 -45 74 -43 29 3 30 5 36 68 3 36 9 75 13 88 10 29 -15 69 -46 74
-16 2 -26 13 -34 36 -5 18 -20 40 -33 48 -17 12 -21 22 -16 41 4 19 0 32 -19
52 -14 14 -39 43 -56 64 -23 27 -40 37 -60 37 -16 0 -35 6 -42 14 -132 140
-192 196 -211 196 -12 0 -39 3 -59 6 -21 4 -38 3 -38 0z"/>
<path d="M14882 3633 c-13 -23 -16 -81 -6 -107 7 -18 34 -22 34 -5 0 6 7 9 15
5 12 -4 15 3 15 35 0 32 -4 42 -19 46 -11 3 -21 15 -23 27 l-3 21 -13 -22z"/>
<path d="M14472 3567 c-20 -22 -33 -53 -76 -195 -17 -53 -10 -92 16 -92 7 0 9
-18 5 -55 -5 -47 -3 -55 14 -60 31 -10 39 3 39 70 0 35 5 67 10 70 6 3 10 0
10 -8 0 -8 9 -22 20 -32 11 -10 20 -29 20 -43 0 -21 3 -23 25 -18 23 6 25 4
19 -18 -7 -28 11 -43 31 -26 21 17 19 49 -6 89 -11 18 -18 38 -16 45 2 6 -6
29 -19 51 l-24 41 30 18 c32 18 41 56 14 56 -9 0 -32 -8 -51 -17 -35 -16 -36
-16 -54 6 -24 29 -25 68 -1 75 9 3 56 6 105 7 48 1 87 5 87 9 0 17 -28 28 -80
33 -30 2 -64 7 -75 11 -15 5 -27 0 -43 -17z"/>
<path d="M15135 3479 c-4 -5 -26 -14 -51 -20 -43 -11 -44 -12 -28 -30 9 -11
25 -19 34 -19 10 0 25 -11 34 -25 9 -14 24 -25 34 -25 12 -1 8 -6 -12 -16 -28
-16 -28 -16 -7 -30 12 -9 21 -24 21 -35 0 -22 32 -39 38 -21 6 18 24 14 64
-13 20 -14 44 -25 53 -25 27 0 132 -58 140 -77 4 -10 11 -35 15 -56 6 -31 4
-40 -11 -50 -10 -7 -22 -24 -28 -38 -8 -23 -7 -25 21 -27 17 -1 35 2 42 7 19
15 65 0 85 -28 15 -21 29 -28 62 -29 23 -2 45 -4 48 -4 3 -1 16 1 29 6 16 5
22 15 22 35 0 23 7 31 38 45 35 16 42 16 75 2 24 -10 41 -26 50 -48 8 -18 30
-48 50 -67 30 -28 43 -33 89 -35 48 -1 53 1 56 22 2 15 -2 22 -12 22 -9 0 -16
6 -16 14 0 7 -9 16 -19 19 -11 3 -26 20 -34 40 -8 19 -24 41 -35 48 -10 8 -22
24 -26 37 -6 19 -4 22 19 22 42 0 27 31 -28 60 -26 14 -47 31 -47 37 0 27 -70
90 -112 102 -24 7 -72 26 -107 42 -35 16 -71 29 -80 29 -9 0 -38 12 -66 25
-27 14 -62 25 -77 25 -41 0 -91 -28 -117 -66 -22 -32 -24 -33 -51 -19 -24 13
-30 23 -35 68 -4 30 -10 59 -14 66 -11 17 -99 42 -106 30z"/>
<path d="M16216 3229 c7 -12 -44 -69 -63 -69 -7 0 -13 7 -13 15 0 19 -16 20
-23 1 -3 -8 -18 -16 -33 -18 -39 -4 -41 -24 -4 -43 36 -19 85 -8 115 25 10 11
24 20 31 20 16 0 34 31 34 59 0 16 -6 21 -26 21 -15 0 -23 -4 -18 -11z"/>
<path d="M13632 3100 l-23 -30 26 0 c14 0 28 -7 31 -15 7 -18 99 -47 128 -39
11 2 48 -4 80 -16 33 -11 92 -23 130 -26 39 -3 83 -10 98 -16 31 -11 70 5 62
26 -7 17 -48 36 -80 36 -14 0 -35 11 -49 26 -31 34 -116 61 -127 40 -9 -16
-93 -11 -118 8 -35 26 -62 36 -98 36 -31 0 -42 -6 -60 -30z"/>
<path d="M14690 2942 c-52 -30 -71 -51 -67 -72 4 -22 37 -13 72 19 17 15 45
34 63 41 17 7 32 19 32 26 0 23 -51 16 -100 -14z"/>
<path d="M15653 2798 c-10 -14 -35 -74 -34 -82 0 -3 -6 -21 -14 -40 -8 -20
-15 -54 -15 -77 0 -42 -59 -186 -83 -201 -23 -15 -58 -8 -79 17 -12 14 -27 25
-33 25 -6 0 -22 12 -36 26 -13 15 -41 37 -62 51 -49 31 -54 46 -28 82 12 16
21 36 21 44 0 8 6 17 14 20 23 9 47 52 40 71 -7 18 -36 21 -66 5 -14 -8 -23
-8 -31 0 -6 6 -22 11 -36 11 -14 0 -41 11 -61 25 -24 16 -43 23 -55 19 -15 -6
-16 -8 -1 -16 37 -21 12 -48 -43 -48 -30 0 -81 -33 -81 -53 -1 -7 -14 -28 -30
-47 -17 -19 -30 -42 -30 -52 0 -28 -56 -15 -86 21 -14 17 -30 31 -35 31 -16 0
-89 -35 -89 -42 0 -5 -6 -8 -13 -8 -11 0 -41 -35 -75 -85 -4 -5 -16 -15 -27
-21 -12 -7 -19 -20 -18 -33 4 -30 -14 -26 -21 5 l-7 26 -29 -38 c-17 -20 -30
-43 -30 -51 0 -24 -89 -121 -122 -132 -17 -6 -44 -11 -59 -11 -16 0 -29 -3
-29 -8 0 -9 -68 -33 -94 -33 -10 0 -37 -10 -58 -22 -22 -12 -53 -29 -69 -38
-16 -9 -36 -22 -44 -29 -11 -9 -15 -9 -15 -1 0 28 -21 -4 -36 -54 -8 -30 -20
-57 -25 -60 -12 -8 -12 -67 1 -101 12 -31 6 -42 -14 -25 -12 10 -15 7 -21 -18
-4 -17 -3 -41 1 -53 4 -13 6 -37 5 -55 -1 -17 2 -34 7 -37 5 -3 7 -57 5 -121
-5 -125 -26 -198 -62 -210 -34 -11 -34 -36 1 -66 26 -22 43 -28 78 -28 25 0
54 6 64 14 11 8 26 15 35 15 8 0 23 8 34 18 18 16 30 18 195 21 24 1 42 10 61
30 30 32 144 83 165 75 8 -3 53 6 102 20 100 30 175 34 194 11 7 -8 21 -15 32
-15 25 0 69 -30 62 -42 -3 -5 0 -16 7 -24 7 -9 13 -34 13 -56 1 -50 14 -56 53
-24 16 14 42 28 57 32 l29 7 -26 -38 c-31 -45 -25 -66 9 -34 22 20 24 21 24 4
0 -10 -7 -26 -16 -36 -15 -17 -14 -19 11 -25 27 -7 27 -7 20 -69 -7 -73 2 -88
68 -106 23 -6 47 -15 53 -20 6 -5 25 1 47 16 41 28 59 32 51 10 -4 -9 0 -15 9
-15 9 0 20 -7 25 -16 7 -13 19 -10 86 25 42 23 90 41 106 41 45 0 57 8 104 74
39 53 130 149 283 297 23 22 49 57 59 77 9 20 33 61 53 91 35 53 39 70 57 223
5 42 2 53 -30 101 -20 30 -36 66 -36 81 0 28 -26 64 -38 52 -7 -8 -34 77 -33
106 0 10 -26 36 -59 60 l-59 43 -1 60 c-1 186 -20 257 -61 234 -20 -10 -19
-13 -24 61 -4 53 -29 143 -41 147 -6 2 -15 -2 -21 -9z"/>
<path d="M10443 2725 c-7 -8 -13 -22 -13 -32 -1 -25 -24 -53 -43 -53 -10 0
-14 -6 -11 -14 4 -9 -13 -35 -41 -64 -35 -39 -59 -54 -105 -68 -40 -13 -60
-24 -60 -35 0 -8 -7 -24 -15 -35 -18 -23 -19 -60 -4 -120 11 -41 9 -51 -11
-95 -13 -27 -27 -49 -31 -49 -5 0 -13 -18 -20 -39 -9 -29 -9 -47 0 -72 6 -17
11 -47 11 -65 0 -47 8 -61 46 -85 l34 -21 55 23 c61 25 41 -16 161 329 30 85
60 169 66 185 6 17 11 45 11 63 0 32 11 43 20 20 3 -7 10 -1 16 15 7 19 8 34
1 47 -5 10 -10 36 -10 57 0 32 -32 124 -42 123 -2 -1 -9 -7 -15 -15z"/>
<path d="M16814 2156 c-8 -22 3 -33 18 -18 9 9 9 15 0 24 -9 9 -13 7 -18 -6z"/>
<path d="M16876 1272 c-3 -5 -5 -35 -4 -68 2 -84 -35 -146 -112 -187 l-33 -18
22 -23 21 -23 -21 -27 c-17 -21 -19 -30 -9 -41 10 -12 19 -10 59 17 25 18 63
49 84 70 21 22 48 38 60 38 25 0 87 57 87 79 0 9 -9 12 -29 8 -17 -4 -36 0
-49 9 -18 12 -20 18 -10 39 14 31 4 43 -18 24 -15 -12 -16 -12 -11 6 14 48 19
95 9 95 -6 0 -17 3 -25 6 -8 3 -17 1 -21 -4z"/>
<path d="M16589 906 c-136 -98 -206 -141 -290 -175 -144 -59 -249 -118 -249
-140 0 -11 61 -41 86 -41 40 0 126 44 192 99 44 36 77 56 112 64 28 6 50 17
50 23 0 6 28 28 63 48 80 48 90 55 112 89 l18 28 -28 -7 c-25 -6 -28 -5 -22
15 7 27 -2 27 -44 -3z"/>
<path d="M15165 903 c-9 -21 -24 -84 -32 -130 -6 -40 18 -47 65 -20 17 10 32
15 32 11 0 -17 100 91 109 117 9 27 9 27 -30 24 -22 -3 -44 -7 -48 -10 -5 -3
-25 2 -45 10 -44 19 -42 19 -51 -2z"/>
<path d="M4860 260 c0 -4 -18 -5 -39 -3 -36 3 -39 2 -34 -17 4 -16 2 -19 -13
-14 -18 5 -18 5 0 -10 23 -19 32 -20 41 -6 3 6 11 10 16 10 6 0 7 -5 3 -12 -5
-8 2 -9 27 -4 19 3 36 11 37 16 2 6 11 10 19 10 12 0 13 3 4 14 -13 15 -61 28
-61 16z"/>
</g>
</svg>
