<svg xmlns="http://www.w3.org/2000/svg" width="66" height="28" viewBox="0 0 66 28">
  <path fill="#999" fill-rule="evenodd" d="M116.06594,13.5819463 L120.730672,13.5819463 C120.414352,14.4693821 119.709037,15.172527 118.818458,15.4914122 L120.914745,18.6142986 L117.537542,18.6142986 L115.988857,15.6782175 L114.576589,15.6782175 L114.576589,18.6131154 L111.6274,18.6131154 L111.6274,13.5819463 L116.060044,13.5819463 L116.060044,13.4983199 C116.062094,13.526172 116.064059,13.5540475 116.06594,13.5819463 Z M112.926671,23.1785727 C110.44137,26.1263416 106.714471,28 102.548387,28 C95.0658195,28 89,21.9558441 89,14.5 C89,7.04415588 95.0658195,1 102.548387,1 C107.837997,1 112.419598,4.02051923 114.650766,8.425 L111.024238,8.425 C109.128187,5.79700945 106.034337,4.08571429 102.53962,4.08571429 C96.7710889,4.08571429 92.0947703,8.74834882 92.0947703,14.5 C92.0947703,20.2516512 96.7710889,24.9142857 102.53962,24.9142857 C106.40911,24.9142857 109.787145,22.8162722 111.591925,19.6988776 L115.055667,19.6988776 C115.027451,19.7661964 114.998704,19.833239 114.96943,19.9 L151.649392,19.9 C154.043173,20.575 153.602361,23.1785714 153.602361,23.1785714 L112.926676,23.1785714 Z M107.405711,18.612997 L107.405711,9.38928571 L110.360856,9.38928571 L110.360856,18.612997 L107.405711,18.612997 Z M111.205269,9.38928571 L117.748645,9.38928571 C119.497189,9.38928571 120.914819,10.7914499 120.914819,12.5209184 C120.914819,12.7353895 120.892629,12.9448525 120.851228,13.1472449 L115.769712,13.1472449 C113.493671,13.1472449 111.602306,11.526927 111.205269,9.38928571 Z M100.334718,14.8396646 L101.565743,10.6015673 C101.77424,9.8836318 102.43592,9.38933009 103.188147,9.38933009 L106.13942,9.38933009 L106.13942,18.6130414 L103.184275,18.6130414 L103.184275,13.1627069 L102.973246,13.1627069 L101.28457,18.6130414 L99.1738373,18.6130414 L97.4851616,13.1627069 L97.274133,13.1627069 L97.274133,18.6130414 L94.3191365,18.6130414 L94.3191365,9.38933009 L97.2702609,9.38933009 C98.0226367,9.38933009 98.6841675,9.8836318 98.8926644,10.6015673 L100.12369,14.8396646 L100.334718,14.8396646 Z M149.096774,15.4642857 C149.096774,15.6571429 148.545161,16.3190131 148.216129,16.4925845 C147.887097,16.6661559 147.654839,16.7178571 146.290323,16.7178571 L144.732258,16.7178571 L144.732258,18.4535714 L143.193548,18.4535714 L143.193548,15.4642857 C143.193548,15.4642857 148.612903,15.4642857 149.096774,15.4642857 Z M142.312903,17.2 L142.312903,18.4535714 L138.645161,18.4535714 L138.645161,12.7642857 L142.312903,12.7642857 L142.312903,13.9854416 L140.087097,13.9854416 L140.087097,14.9497273 L141.829032,14.9497273 L141.829032,16.2032988 L140.087097,16.2032988 L140.087097,17.2 L142.312903,17.2 Z M127.129032,18.4535714 L125.580645,18.4535714 L125.193548,17.2964286 L123.645161,17.2964286 L123.258065,18.4535714 L121.709677,18.4535714 L123.645161,12.7642857 L125.193548,12.7642857 L127.129032,18.4535714 Z M123.935484,16.0428571 L124.903226,16.0428571 L124.419355,14.2107143 L123.935484,16.0428571 Z M131.222785,18.3825845 C130.71956,18.5272273 129.655044,18.5465131 129.190527,18.4115131 C128.706656,18.2765131 127.971173,17.7365131 127.690527,17.3122273 C127.313108,16.7625845 127.187302,16.2322273 127.235689,15.3643702 C127.293753,14.1590131 127.806656,13.3682988 128.851818,12.8861559 C129.500205,12.5872273 130.855044,12.5968702 131.522785,12.9054416 C131.793753,13.0307988 132.122785,13.2429416 132.267947,13.3779416 L132.529237,13.6190131 L132.18085,14.1397273 C131.987302,14.4290131 131.803431,14.6604416 131.774398,14.6604416 C131.745366,14.6604416 131.522785,14.5254416 131.290527,14.3711559 C130.767947,14.0143702 130.313108,13.9275845 129.800205,14.0818702 C128.677624,14.4097273 128.329237,16.0104416 129.209882,16.7818702 C129.393753,16.9361559 129.655044,17.1000845 129.790527,17.1290131 C130.216334,17.2350845 130.884076,17.1000845 131.290527,16.8300845 C131.513108,16.6950845 131.764721,16.5057143 131.774398,16.525 C131.929237,16.7275 132.451613,17.5278571 132.451613,17.5857143 C132.451613,17.7110714 131.687302,18.2379416 131.222785,18.3825845 Z M136.738915,18.3825845 C136.235689,18.5272273 135.171173,18.5465131 134.706656,18.4115131 C134.222785,18.2765131 133.487302,17.7365131 133.206656,17.3122273 C132.829237,16.7625845 132.703431,16.2322273 132.751818,15.3643702 C132.809882,14.1590131 133.322785,13.3682988 134.367947,12.8861559 C135.016334,12.5872273 136.371173,12.5968702 137.038915,12.9054416 C137.309882,13.0307988 137.638915,13.2429416 137.784076,13.3779416 L138.045366,13.6190131 L137.696979,14.1397273 C137.503431,14.4290131 137.31956,14.6604416 137.290527,14.6604416 C137.261495,14.6604416 137.038915,14.5254416 136.806656,14.3711559 C136.284076,14.0143702 135.829237,13.9275845 135.316334,14.0818702 C134.193753,14.4097273 133.845366,16.0104416 134.726011,16.7818702 C134.909882,16.9361559 135.171173,17.1000845 135.306656,17.1290131 C135.732463,17.2350845 136.400205,17.1000845 136.806656,16.8300845 C137.029237,16.6950845 137.28085,16.5057143 137.290527,16.525 C137.445366,16.7275 137.967742,17.5278571 137.967742,17.5857143 C137.967742,17.7110714 137.203431,18.2379416 136.738915,18.3825845 Z M147.928808,12.9530752 C148.648779,13.3117751 149.040343,13.9284872 149.084551,14.7717467 L149.096774,15.2751852 L147.101473,15.2751852 C145.232074,15.2500133 145.061554,15.2374273 144.726831,15.1115677 C143.773185,14.7654537 143.110054,14.0543469 142.825854,13.0978137 L142.724806,12.7642857 L145.168919,12.7831647 L147.613031,12.8020436 L147.928808,12.9530752 Z M149.483871,12.5714286 L155,12.5714286 L155,13.9214286 L153.064516,13.9214286 L153.064516,18.8392857 L151.419355,18.8392857 L151.419355,13.9214286 L149.483871,13.9214286 L149.483871,12.5714286 Z" transform="translate(-89)"/>
</svg>
