<svg xmlns="http://www.w3.org/2000/svg" width="65" height="28" viewBox="0 0 65 28">
  <g fill="none" fill-rule="evenodd" transform="translate(0 7)">
    <path fill="#999" fill-rule="nonzero" d="M23.1481752,14.9068613 L22.6583942,14.9068613 L22.6583942,9.45673966 L23.1481752,9.45673966 L23.1481752,14.9068613 Z M26.8817518,9.45673966 C27.3115791,9.45045921 27.7394081,9.51468951 28.1471533,9.64671533 C28.5040465,9.76114692 28.8322625,9.94680442 29.1106569,10.1917275 C29.3718734,10.4314958 29.5757735,10.7238256 29.7080292,11.0481752 C29.9920161,11.7772305 29.9920161,12.581699 29.7080292,13.3107543 C29.5736364,13.6363871 29.3669412,13.9293257 29.1026277,14.1687591 C28.8242615,14.4137196 28.496037,14.599382 28.1391241,14.7137713 C27.7318889,14.8456237 27.3046179,14.9098517 26.8753285,14.903747 L24.8294891,14.903747 L24.8294891,9.4536253 L26.8817518,9.45673966 Z M25.3208759,9.90832117 L25.3208759,14.4552798 L26.8817518,14.4552798 C27.2495656,14.4634768 27.6161292,14.4108167 27.9656934,14.299562 C28.259454,14.2028113 28.5287295,14.0467788 28.7557664,13.8417518 C28.9702291,13.6414513 29.134959,13.3965196 29.2375182,13.1254501 C29.4549869,12.5204278 29.4549869,11.8618593 29.2375182,11.256837 C29.1345743,10.985501 28.9699139,10.7401403 28.7557664,10.5389781 C28.5294182,10.3330636 28.2599337,10.1769099 27.9656934,10.0811679 C27.6159792,9.97053001 27.2495248,9.91788561 26.8817518,9.92545012 L25.3208759,9.90832117 Z M35.9354745,9.39445255 C36.1706595,9.39383315 36.4051079,9.41996463 36.6340146,9.47231144 C36.853375,9.52234375 37.0657819,9.59762224 37.2667153,9.69654501 C37.4597765,9.7911512 37.6394971,9.9094276 37.8014599,10.0484672 C37.9596178,10.1846034 38.0969598,10.3419027 38.2093431,10.5156204 L37.799854,10.7803406 C37.7034954,10.6373886 37.5879292,10.5075198 37.4562044,10.3941606 C37.3234696,10.2800997 37.1767723,10.1823015 37.0194161,10.1029684 C36.8565249,10.0211884 36.6839635,9.9589617 36.5055474,9.91766423 C36.3193241,9.87468445 36.1285047,9.85325362 35.9370803,9.85381995 C35.6178383,9.8513387 35.3010849,9.9084346 35.0040876,10.0219951 C34.7241651,10.1270473 34.4690675,10.2859557 34.2541606,10.4891484 C34.0381699,10.6992079 33.867805,10.9491293 33.7531387,11.2241363 C33.5095124,11.835355 33.5095124,12.5126742 33.7531387,13.1238929 C33.8680534,13.3996067 34.038986,13.6500895 34.2557664,13.860438 C34.4706733,14.0636307 34.725771,14.2225391 35.0056934,14.3275912 C35.3026907,14.4411518 35.6194442,14.4982477 35.9386861,14.4957664 C36.128953,14.4962421 36.3186361,14.4753404 36.5039416,14.4334793 C36.6818786,14.3937536 36.8539757,14.3325461 37.0162044,14.2512895 C37.1741812,14.1721618 37.3214351,14.0743522 37.4545985,13.9600973 C37.5870411,13.8462514 37.7026781,13.7152552 37.7982482,13.5708029 L38.199708,13.8557664 C38.0831571,14.0287602 37.9432809,14.1858694 37.7837956,14.3229197 C37.6225062,14.4588702 37.4445161,14.5749805 37.2538686,14.6686131 C37.0555772,14.7660491 36.8458182,14.8397761 36.6291971,14.8881752 C36.0186712,15.0229133 35.3805296,14.9773572 34.7969343,14.7573723 C34.4559143,14.6268009 34.145253,14.4314402 33.8832117,14.1827737 C33.6226663,13.9321133 33.4172599,13.6328107 33.2794161,13.3029684 C32.9877837,12.5790466 32.9877837,11.7752113 33.2794161,11.0512895 C33.4169897,10.7208509 33.6224165,10.4209887 33.8832117,10.169927 C34.145253,9.92126052 34.4559143,9.72589978 34.7969343,9.59532847 C35.1591031,9.45822678 35.5451072,9.39002678 35.9338686,9.39445255 L35.9354745,9.39445255 Z M39.8745985,11.8859367 C39.9464634,11.7703708 40.035165,11.6654761 40.1379562,11.5745012 C40.2340695,11.48817 40.3421749,11.4153135 40.4591241,11.3580535 C40.5766428,11.3023202 40.7006476,11.2604951 40.8284672,11.2334793 C40.9550569,11.2065707 41.0842731,11.1929964 41.2138686,11.1929927 C41.432509,11.1908399 41.6498666,11.2256171 41.8562044,11.2957664 C42.0431836,11.3595748 42.2147637,11.4597211 42.360438,11.590073 C42.5016227,11.7209902 42.6112845,11.8804984 42.6816058,12.0572263 C42.76011,12.2526777 42.798828,12.4610244 42.7956204,12.6707543 L42.7956204,14.9162044 L42.3379562,14.9162044 L42.3379562,12.7968856 C42.3403954,12.6275822 42.3132475,12.4591009 42.2576642,12.2985888 C42.2082938,12.1578748 42.1270899,12.0296512 42.02,11.923309 C41.9124359,11.8188396 41.7825104,11.7385685 41.6394161,11.6881752 C41.4746408,11.6309142 41.3005621,11.6029561 41.1255474,11.6056448 C40.9559636,11.6042064 40.7876209,11.6337906 40.6293431,11.6928467 C40.4795036,11.7486748 40.3429217,11.8334383 40.2278832,11.9419951 C40.1128709,12.0521264 40.0216964,12.1834203 39.959708,12.3281752 C39.8930183,12.4840698 39.8596919,12.6514795 39.8617518,12.8202433 L39.8617518,14.9068613 L39.4040876,14.9068613 L39.4040876,9.3010219 L39.8617518,9.3010219 L39.8745985,11.8859367 Z M45.7953285,11.1929927 C46.0361519,11.1910532 46.2747015,11.2382724 46.4954745,11.3315815 C46.7067069,11.4209408 46.8964666,11.5519216 47.0527007,11.7162044 C47.2140657,11.888752 47.3399698,12.0895908 47.4236496,12.3079319 C47.5170929,12.5488765 47.5649635,12.8041864 47.5649635,13.0616058 C47.5649635,13.0958637 47.5649635,13.1275264 47.5649635,13.1565937 C47.5649635,13.185661 47.5649635,13.2147283 47.5649635,13.2437956 L44.3886131,13.2437956 C44.4002644,13.4404432 44.449831,13.6332297 44.5347445,13.8121655 C44.6121797,13.9719196 44.7213137,14.1153151 44.8559124,14.2341606 C44.9870375,14.3497746 45.1403721,14.4391991 45.3071533,14.4973236 C45.4817555,14.558122 45.6660178,14.5886923 45.8515328,14.5876399 C46.0958266,14.591587 46.3380627,14.5437576 46.5613139,14.4474939 C46.7717561,14.3533375 46.9635989,14.2242236 47.1281752,14.0659854 L47.3738686,14.3774209 C47.2623131,14.4873426 47.1390439,14.5854751 47.0061314,14.6701703 C46.8866688,14.7457156 46.7590499,14.8083747 46.6255474,14.8570316 C46.4978987,14.9034398 46.3654505,14.9363316 46.2305109,14.9551338 C46.0958803,14.9730663 45.960128,14.9819116 45.8242336,14.9816058 C45.5630814,14.984164 45.3039424,14.9370809 45.0614599,14.843017 C44.8353132,14.7554055 44.6302911,14.6233961 44.4592701,14.4552798 C44.2860987,14.2824061 44.1516111,14.0767153 44.0642336,13.8510949 C43.9651462,13.6029181 43.9160842,13.3386107 43.919708,13.0725061 C43.9169582,12.8121808 43.9654658,12.5537382 44.0626277,12.3110462 C44.1515795,12.0879375 44.2853058,11.884164 44.4560584,11.7115328 C44.6245776,11.5433503 44.8267693,11.4103443 45.050219,11.3206813 C45.2860808,11.2273145 45.5389979,11.1812302 45.7937226,11.1852068 L45.7953285,11.1929927 Z M45.7953285,11.5869586 C45.6144922,11.5846112 45.4349557,11.6168904 45.2670073,11.6819465 C45.1111776,11.7434777 44.9689159,11.8333307 44.8478832,11.9466667 C44.7250556,12.0626742 44.624944,12.1993219 44.5524088,12.3499757 C44.4744236,12.5121417 44.4250284,12.6858389 44.4062774,12.8638443 L47.0992701,12.8638443 C47.0855728,12.6844045 47.0405019,12.5085309 46.9659854,12.343747 C46.8986114,12.1933564 46.8027446,12.0565548 46.6833577,11.940438 C46.4448423,11.7110664 46.1215948,11.583779 45.7856934,11.5869586 L45.7953285,11.5869586 Z M50.3671533,11.1929927 C50.6347765,11.1906799 50.9001587,11.2404535 51.1475912,11.3393674 C51.381892,11.4332276 51.5911099,11.5775319 51.7594161,11.7613625 L51.4623358,12.0603406 C51.3195068,11.9205802 51.151283,11.8076062 50.9661314,11.7271046 C50.7730851,11.646238 50.5645748,11.6059058 50.3543066,11.6087591 C50.1563608,11.6069389 49.9601396,11.6445699 49.7778102,11.7193187 C49.6031352,11.7918895 49.4453065,11.8978037 49.3137226,12.0307543 C49.1804581,12.1651389 49.0761842,12.3239569 49.0070073,12.4979075 C48.8596541,12.8783813 48.8596541,13.2977744 49.0070073,13.6782482 C49.1424671,14.0295988 49.4213083,14.3112565 49.7778102,14.456837 C49.9601396,14.5315859 50.1563608,14.5692169 50.3543066,14.5673966 C50.56776,14.5695916 50.779189,14.5271 50.9741606,14.4428224 C51.1593413,14.3620894 51.3283992,14.2503395 51.4735766,14.1127007 L51.7594161,14.4163504 C51.5892671,14.5995617 51.3791667,14.743718 51.1443796,14.8383455 C50.8975595,14.937422 50.632667,14.9872063 50.3655474,14.9847202 C50.098154,14.9878945 49.8328056,14.939186 49.5851095,14.8414599 C49.1212481,14.6586174 48.7553887,14.2987765 48.5734307,13.8464234 C48.3832194,13.363048 48.3832194,12.8286795 48.5734307,12.3453041 C48.7546945,11.892157 49.1207138,11.5315954 49.5851095,11.3487105 C49.829339,11.2448532 50.0924753,11.189268 50.3591241,11.1852068 L50.3671533,11.1929927 Z M53.2978102,12.7968856 L53.9112409,12.7968856 L55.5010219,11.2521655 L56.0791241,11.2521655 L54.2805839,12.9806326 L56.1112409,14.9146472 L55.529927,14.9146472 L53.9112409,13.2017518 L53.2978102,13.2017518 L53.2978102,14.9146472 L52.8321168,14.9146472 L52.8321168,9.30880779 L53.289781,9.30880779 L53.2978102,12.7968856 Z M28.6465693,7.51961071 L28.6465693,5.18384428 C28.6465693,4.30248175 28.0668613,3.70919708 27.1338686,3.70141119 C26.5926979,3.66748289 26.0753158,3.9216159 25.7833577,4.36476886 C25.5172649,3.93467958 25.0299012,3.68015936 24.5131387,3.70141119 C24.0636959,3.68036257 23.6362361,3.89116873 23.3890511,4.25576642 L23.3890511,3.78861314 L22.5524088,3.78861314 L22.5524088,7.51649635 L23.3970803,7.51649635 L23.3970803,5.45323601 C23.3970803,4.80545012 23.7664234,4.46287105 24.3381022,4.46287105 C24.909781,4.46287105 25.1747445,4.81323601 25.1747445,5.44545012 L25.1747445,7.51961071 L26.0194161,7.51961071 L26.0194161,5.45323601 C26.0194161,4.80545012 26.4048175,4.46287105 26.960438,4.46287105 C27.5160584,4.46287105 27.8051095,4.81323601 27.8051095,5.44545012 L27.8051095,7.51961071 L28.6465693,7.51961071 Z M41.1448175,3.79172749 L39.7782482,3.79172749 L39.7782482,2.66121655 L38.9416058,2.66121655 L38.9416058,3.79172749 L38.1611679,3.79172749 L38.1611679,4.53294404 L38.9416058,4.53294404 L38.9416058,6.233382 C38.9416058,7.09917275 39.2868613,7.61459854 40.2760584,7.61459854 C40.645521,7.61575595 41.0078395,7.51591302 41.3214599,7.32652068 L41.0805839,6.63201946 C40.8561221,6.76166825 40.6014177,6.83399605 40.340292,6.84223844 C39.9227737,6.84223844 39.7846715,6.59309002 39.7846715,6.2193674 L39.7846715,4.53294404 L41.1512409,4.53294404 L41.1448175,3.79172749 Z M48.279562,3.69829684 C47.8640033,3.68655055 47.4751462,3.89630144 47.2662774,4.24486618 L47.2662774,3.79172749 L46.4376642,3.79172749 L46.4376642,7.51961071 L47.2743066,7.51961071 L47.2743066,5.42987835 C47.2743066,4.8070073 47.5472993,4.47065693 48.0948905,4.47065693 C48.2740273,4.46814411 48.4519185,4.49989267 48.6183942,4.56408759 L48.8753285,3.79951338 C48.6841117,3.73319889 48.4826387,3.69897002 48.279562,3.69829684 L48.279562,3.69829684 Z M37.4963504,4.08914842 C37.022666,3.8162582 36.4780814,3.68112972 35.9274453,3.69985401 C34.9543066,3.69985401 34.3216058,4.15143552 34.3216058,4.89265207 C34.3216058,5.50150852 34.7872993,5.87523114 35.6480292,5.99201946 L36.0414599,6.04652068 C36.4991241,6.10880779 36.7175182,6.22559611 36.7175182,6.43581509 C36.7175182,6.72389294 36.4124088,6.88739659 35.8407299,6.88739659 C35.3795178,6.90160369 34.9268621,6.76443528 34.5560584,6.49810219 L34.1626277,7.1303163 C34.6498371,7.46064712 35.2336176,7.63041959 35.8278832,7.61459854 C36.9375182,7.61459854 37.5814599,7.10695864 37.5814599,6.39844282 C37.5814599,5.74287105 37.0740146,5.40029197 36.2389781,5.28350365 L35.8455474,5.22900243 C35.4842336,5.1822871 35.1935766,5.11221411 35.1935766,4.86306569 C35.1935766,4.59055961 35.4665693,4.42549878 35.9258394,4.42549878 C36.3466347,4.43152928 36.7589125,4.54138963 37.1237956,4.74472019 L37.4963504,4.08914842 Z M59.9042336,3.69985401 C59.4886748,3.68810773 59.0998177,3.89785861 58.8909489,4.24642336 L58.8909489,3.79172749 L58.0623358,3.79172749 L58.0623358,7.51961071 L58.8989781,7.51961071 L58.8989781,5.42987835 C58.8989781,4.8070073 59.1719708,4.47065693 59.719562,4.47065693 C59.8986989,4.46814411 60.07659,4.49989267 60.2430657,4.56408759 L60.5,3.79951338 C60.3087833,3.73319889 60.1073102,3.69897002 59.9042336,3.69829684 L59.9042336,3.69985401 Z M49.1258394,5.65722628 C49.1258394,6.78773723 49.9383942,7.61459854 51.1764964,7.61459854 C51.6785399,7.63868448 52.1717217,7.47982762 52.5591241,7.16924574 L52.1576642,6.51367397 C51.8660944,6.72684856 51.5111424,6.84267318 51.1459854,6.84379562 C50.4779562,6.84379562 49.9881752,6.36729927 49.9881752,5.65099757 C49.9881752,4.93469586 50.479562,4.4659854 51.1459854,4.45819951 C51.50949,4.46200872 51.862031,4.57942002 52.1512409,4.7929927 L52.5527007,4.13742092 C52.1652984,3.82683905 51.6721166,3.66798219 51.170073,3.69206813 C49.9319708,3.69206813 49.1194161,4.51892944 49.1194161,5.64944039 L49.1258394,5.65722628 Z M56.9591241,5.65722628 L56.9591241,3.78861314 L56.1240876,3.78861314 L56.1240876,4.24175182 C55.8346495,3.87957699 55.3821687,3.67586269 54.910073,3.69518248 C53.8325547,3.69518248 52.9830657,4.51425791 52.9830657,5.65255474 C52.9830657,6.79085158 53.8277372,7.60992701 54.910073,7.60992701 C55.3821687,7.6292468 55.8346495,7.4255325 56.1240876,7.06335766 L56.1240876,7.51493917 L56.9607299,7.51493917 L56.9591241,5.65722628 Z M53.8470073,5.65722628 C53.8470073,5.0016545 54.2886131,4.46442822 55.0128467,4.46442822 C55.7049635,4.46442822 56.1706569,4.97985401 56.1706569,5.65722628 C56.1706569,6.33459854 55.7049635,6.85002433 55.0128467,6.85002433 C54.2886131,6.85002433 53.8470073,6.31124088 53.8470073,5.65722628 Z M43.7591241,3.69829684 C42.6350365,3.69829684 41.8449635,4.4940146 41.8449635,5.6556691 C41.8449635,6.84068127 42.6655474,7.61304136 43.8153285,7.61304136 C44.389429,7.6325463 44.9508194,7.44628234 45.3922628,7.08982968 L44.9827737,6.48875912 C44.6633917,6.73655315 44.2676888,6.87359309 43.8586861,6.87805353 C43.3191241,6.87805353 42.8293431,6.636691 42.7089051,5.96554745 L45.5640876,5.96554745 C45.5721168,5.8643309 45.580146,5.76311436 45.580146,5.65411192 C45.580146,4.49245742 44.8318248,3.69673966 43.7543066,3.69673966 L43.7591241,3.69829684 Z M43.7430657,4.42394161 C44.2826277,4.42394161 44.6278832,4.75094891 44.7162044,5.3286618 L42.7137226,5.3286618 C42.8020438,4.78987835 43.1392701,4.42394161 43.7350365,4.42394161 L43.7430657,4.42394161 Z M64.7281752,5.6556691 L64.7281752,2.29527981 L63.8915328,2.29527981 L63.8915328,4.24486618 C63.6020947,3.88269135 63.1496139,3.67897705 62.6775182,3.69829684 C61.6,3.69829684 60.7505109,4.51737226 60.7505109,5.6556691 C60.7505109,6.79396594 61.5951825,7.61304136 62.6775182,7.61304136 C63.1496139,7.63236115 63.6020947,7.42864685 63.8915328,7.06647202 L63.8915328,7.51805353 L64.7281752,7.51805353 L64.7281752,5.6556691 Z M65.7061314,7.17547445 C65.7392181,7.17534858 65.7719901,7.18170437 65.8024818,7.19416058 C65.8318275,7.20630695 65.8585288,7.22374455 65.8811679,7.24554745 C65.9036052,7.26694168 65.9215954,7.2923163 65.9341606,7.32029197 C65.9602372,7.37893111 65.9602372,7.44539979 65.9341606,7.50403893 C65.9215606,7.53199587 65.9035747,7.55736442 65.8811679,7.57878345 C65.8584559,7.60050006 65.8317724,7.61792599 65.8024818,7.63017032 C65.7720301,7.6427524 65.7392311,7.64911343 65.7061314,7.64885645 C65.6060324,7.65006822 65.5149254,7.59301133 65.4748905,7.50403893 C65.4490031,7.44536206 65.4490031,7.37896884 65.4748905,7.32029197 C65.5000049,7.26311524 65.5473021,7.21781058 65.6065693,7.19416058 C65.6356112,7.18244985 65.6666563,7.17611208 65.6981022,7.17547445 L65.7061314,7.17547445 Z M65.7061314,7.59591241 C65.7314938,7.59629866 65.7566579,7.59152443 65.78,7.58189781 C65.8021245,7.57260817 65.8222729,7.55940693 65.8394161,7.54296837 C65.9137318,7.47065481 65.9137318,7.35367609 65.8394161,7.28136253 C65.8223463,7.26483733 65.80218,7.25162431 65.78,7.24243309 C65.7566304,7.23289361 65.7314853,7.228123 65.7061314,7.22841849 C65.6802541,7.22808604 65.6545769,7.23285396 65.6306569,7.24243309 C65.5725147,7.26650608 65.5304137,7.31690556 65.5182006,7.37705533 C65.5059876,7.43720509 65.5252434,7.49931913 65.569635,7.54296837 C65.5872051,7.55962888 65.6079242,7.57284678 65.6306569,7.58189781 C65.6519598,7.59106637 65.6748242,7.59634531 65.6981022,7.59746959 L65.7061314,7.59591241 Z M65.7205839,7.30004866 C65.7446299,7.2984149 65.7685029,7.30502909 65.7880292,7.31873479 C65.8040609,7.33115039 65.8130116,7.35024535 65.8121168,7.37012165 C65.8127033,7.38716361 65.8056798,7.40362252 65.7928467,7.41527981 C65.7781229,7.42798075 65.7595044,7.43564016 65.739854,7.43708029 L65.8137226,7.51961071 L65.7559124,7.51961071 L65.6868613,7.43708029 L65.6643796,7.43708029 L65.6643796,7.51961071 L65.6162044,7.51961071 L65.6162044,7.30004866 L65.7205839,7.30004866 Z M65.6643796,7.34053528 L65.6643796,7.39970803 L65.7205839,7.39970803 C65.7305476,7.40251961 65.7411312,7.40251961 65.7510949,7.39970803 C65.7585019,7.39483579 65.7627604,7.38657691 65.7623358,7.37790754 C65.7627604,7.36923818 65.7585019,7.3609793 65.7510949,7.35610706 C65.7411312,7.35329547 65.7305476,7.35329547 65.7205839,7.35610706 L65.6643796,7.34053528 Z M61.6160584,5.65411192 C61.6160584,4.99854015 62.0576642,4.46131387 62.7818978,4.46131387 C63.4740146,4.46131387 63.939708,4.97673966 63.939708,5.65411192 C63.939708,6.33148418 63.4740146,6.84690998 62.7818978,6.84690998 C62.0576642,6.84690998 61.6160584,6.30812652 61.6160584,5.65411192 Z M33.3693431,5.65411192 L33.3693431,3.78549878 L32.5182482,3.78549878 L32.5182482,4.23863747 C32.2288101,3.87646264 31.7763293,3.67274834 31.3042336,3.69206813 C30.2267153,3.69206813 29.3772263,4.51114355 29.3772263,5.64944039 C29.3772263,6.78773723 30.2218978,7.60681265 31.3042336,7.60681265 C31.7763293,7.62613244 32.2288101,7.42241814 32.5182482,7.06024331 L32.5182482,7.51182482 L33.3548905,7.51182482 L33.3693431,5.65411192 Z M30.2572263,5.65411192 C30.2572263,4.99854015 30.6988321,4.46131387 31.4230657,4.46131387 C32.1151825,4.46131387 32.5808759,4.97673966 32.5808759,5.65411192 C32.5808759,6.33148418 32.1151825,6.84690998 31.4230657,6.84690998 C30.6891971,6.84379562 30.2475912,6.31124088 30.2475912,5.6556691 L30.2572263,5.65411192 Z M56.6925547,14.7231144 L56.620292,14.7231144 L56.620292,14.9068613 L56.5849635,14.9068613 L56.5849635,14.7231144 L56.5127007,14.7231144 L56.5127007,14.6904136 L56.6925547,14.6904136 L56.6925547,14.7231144 Z M56.9687591,14.9068613 L56.9270073,14.9068613 L56.9270073,14.7293431 L56.8611679,14.8850608 L56.8226277,14.8850608 L56.7567883,14.7293431 L56.7567883,14.9053041 L56.7214599,14.9053041 L56.7214599,14.6888564 L56.7760584,14.6888564 L56.840292,14.8445742 L56.9045255,14.6888564 L56.9591241,14.6888564 L56.9687591,14.9068613 Z"/>
    <rect width="5.058" height="8.815" x="6.818" y="1.224" fill="#8E8E8E"/>
    <path fill="#7B7B7B" d="M7.1459854,5.63231144 C7.14458789,3.91240899 7.95879848,2.28739717 9.3540146,1.22549878 C6.98376195,-0.580819187 3.57998409,-0.317713354 1.53476462,1.82991257 C-0.510454844,3.9775385 -0.510454844,7.28864155 1.53476462,9.43626748 C3.57998409,11.5838934 6.98376195,11.8469992 9.3540146,10.0406813 C7.95835448,8.97844566 7.14409415,7.35276033 7.1459854,5.63231144 Z"/>
    <path fill="#ABABAB" fill-rule="nonzero" d="M18.5106383,9.9929078 L18.5106383,9.17021277 L18.8510638,9.17021277 L18.8510638,9 L18,9 L18,9.17021277 L18.3333333,9.17021277 L18.3333333,9.9929078 L18.5106383,9.9929078 Z M20.1489362,9.9929078 L20.1489362,9 L19.893617,9 L19.5957447,9.70921986 L19.2978723,9 L19.035461,9 L19.035461,9.9929078 L19.2198582,9.9929078 L19.2198582,9.24822695 L19.4964539,9.89361702 L19.6879433,9.89361702 L19.964539,9.24822695 L19.964539,10 L20.1489362,9.9929078 Z"/>
    <path fill="#ABABAB" d="M18.7080292,5.63231144 C18.7079776,7.77862858 17.4441406,9.73651003 15.4532746,10.674436 C13.4624086,11.612362 11.0940363,11.3656673 9.3540146,10.0391241 C10.7486219,8.97632418 11.5628938,7.35152841 11.5628938,5.63153285 C11.5628938,3.91153728 10.7486219,2.28674152 9.3540146,1.22394161 C11.0942641,-0.102775369 13.4630046,-0.349347148 15.4539969,0.588969789 C17.4449892,1.52728673 18.7085926,3.48571337 18.7080292,5.63231144 Z"/>
  </g>
</svg>
