<svg xmlns="http://www.w3.org/2000/svg" width="65" height="28" viewBox="0 0 65 28">
  <path fill="#999" fill-rule="evenodd" d="M29.6896889,2.18951111 C29.8318222,2.42264444 29.9655778,2.66155556 30.1178222,2.88804445 C31.0821333,4.32353333 32.0490445,5.757 33.0179778,7.18902222 C33.7272,8.23797778 34.4422,9.28288889 35.152,10.3312667 C35.9138,11.4562 36.6718445,12.5837333 37.4327778,13.7092445 C37.7473778,14.1749333 38.0648667,14.6388889 38.3901555,15.1172889 C37.7329333,15.4711778 37.0950667,15.8140889 36.4574889,16.1581555 C35.0774667,16.9032 33.6983111,17.6502667 32.3171333,18.3938667 C31.6298667,18.7642222 30.9388445,19.1267778 30.2515778,19.4968445 C28.8704,20.2407333 27.4918222,20.9886667 26.1106445,21.7319778 C25.3757111,22.1274667 24.6352889,22.5131333 23.9003555,22.9089111 C22.5399778,23.6418222 21.1822,24.3802222 19.8221111,25.1137111 C19.1215555,25.4915778 18.4181111,25.8645333 17.7158222,26.2392222 C16.8023555,26.7268667 15.8883111,27.2133555 14.9762889,27.7036 C14.9060889,27.7414445 14.8500445,27.8052889 14.7876445,27.857 L14.6934667,27.857 C14.4499333,27.5013778 14.2078445,27.1448889 13.9625778,26.7907111 C13.1499333,25.6169555 12.3358445,24.4440667 11.5223333,23.2708889 C10.5944222,21.9327555 9.6668,20.5943333 8.73831114,19.2567778 C7.95917778,18.1344445 7.17715555,17.0147111 6.39975555,15.8915111 C5.49957778,14.5906445 4.60546667,13.2857333 3.705,11.9851555 C2.67251111,10.4942 1.63713333,9.00497778 0.599733333,7.51748889 C0.417155555,7.25546667 0.217822222,7.00528889 0.0262888889,6.74962222 L0.0262888889,6.70253333 C0.360822222,6.65053333 0.695355555,6.59824445 1.02988889,6.54653333 C1.68451111,6.44571111 2.33942222,6.34344445 2.99462222,6.24551111 C3.56662222,6.16028889 4.13977778,6.08402222 4.71148889,5.9962 C5.36611111,5.89566667 6.01842222,5.78213333 6.67333333,5.68275555 C7.34413333,5.58077778 8.01695555,5.49324445 8.68804447,5.39271111 C9.38108886,5.289 10.0726889,5.17517778 10.7657333,5.07031111 C11.4212222,4.97093333 12.0781555,4.88108889 12.7336445,4.78026667 C13.5098889,4.66124445 14.2846889,4.53124445 15.0612222,4.4128 C15.7245111,4.31168889 16.3895333,4.22444445 17.0528222,4.12391111 C17.8449555,4.00431111 18.6359333,3.87806667 19.4269111,3.75268889 C19.9974667,3.66226667 20.5668667,3.56606667 21.1374222,3.47737778 C21.5794222,3.40862222 22.0225778,3.34882222 22.4651555,3.28295555 C23.0443778,3.19715555 23.6236,3.10933333 24.2028222,3.02237778 C24.6676445,2.95275555 25.1321778,2.88255555 25.597,2.81322222 C26.1614889,2.72857778 26.7256889,2.64595556 27.2898889,2.56015556 C27.8607333,2.47348889 28.4318667,2.38653333 29.0021333,2.29408889 C29.1546667,2.26953333 29.3037333,2.22504444 29.4545333,2.18951111 L29.6896889,2.18951111 Z M8.58086667,14.0619778 C8.58086667,15.5818222 8.5852,17.1016667 8.57595555,18.6215111 C8.5748,18.8494445 8.62362222,18.9364 8.87235553,18.9323555 C9.77311114,18.9173333 10.6741555,18.9184889 11.5749111,18.9317778 C11.8092,18.9352445 11.8626445,18.8558 11.8603333,18.6365333 C11.8499333,17.6808889 11.8591778,16.7252445 11.8536889,15.7693111 C11.8525333,15.5904889 11.9085778,15.5272222 12.0949111,15.5182667 C12.5554,15.4963111 13.0179111,15.4711778 13.4732,15.4041555 C14.3387111,15.2764667 15.1672445,15.0257111 15.899,14.5244889 C16.8237333,13.8915333 17.3050222,13.0173555 17.2264445,11.8901111 C17.1475778,10.7594 16.4848667,10.0319778 15.4908,9.57322222 C14.6758445,9.19737778 13.8039778,9.05004445 12.9185333,9.00324445 C11.5636445,8.93131111 10.2119333,8.97955555 8.86773333,9.18668889 C8.65424445,9.21933333 8.5722,9.2904 8.57422222,9.52642222 C8.58693333,11.0381778 8.58086667,12.5502222 8.58086667,14.0619778 Z M26.4772445,15.5757555 C26.3099778,15.6679111 26.1900889,15.7381111 26.0664445,15.8010889 C25.7463555,15.9637333 25.4352222,16.1512222 25.1012667,16.2780445 C24.401,16.5438222 23.6643333,16.5828222 22.9270889,16.5094445 C21.8671555,16.404 21.2339111,15.8400889 21.0250445,14.831 C20.8964889,14.2104667 20.9005333,13.5824222 21.0649111,12.9694 C21.2954445,12.1108222 21.8281555,11.5229333 22.7300667,11.3926445 C23.1639778,11.3299555 23.6207111,11.3767555 24.0621333,11.4229778 C24.6988445,11.4894222 25.3032,11.6630445 25.8015333,12.1062 C25.9924889,12.2757778 26.2120445,12.4132889 26.4451778,12.5851778 C26.4587555,12.4907111 26.4734889,12.4317778 26.4746445,12.3725555 C26.4827333,11.958 26.4610667,11.5402667 26.5023778,11.1288889 C26.5405111,10.7475555 26.3761333,10.5005556 26.1161333,10.2593333 C24.8672667,9.09944445 23.4028889,8.67275555 21.7397555,9.00584445 C19.9925555,9.35568889 18.7145111,10.3231778 18.0619111,12.0146222 C17.5840889,13.2533778 17.5647333,14.5244889 17.9535778,15.7895333 C18.3354889,17.0329111 19.1420667,17.9195111 20.3230445,18.4623333 C20.9629333,18.7564222 21.6400889,18.9066445 22.3392,18.9586445 C23.7489778,19.0635111 25.1061778,18.9216667 26.3238445,18.1107555 C26.4526889,18.0249555 26.4983333,17.9351111 26.4968889,17.7869111 C26.4908222,17.1366222 26.4948667,16.4866222 26.4937111,15.8363333 C26.4937111,15.7681555 26.4853333,15.6999778 26.4772445,15.5757555 Z M27.9985333,8.99082222 L27.9985333,18.9121333 C28.0944445,18.9173333 28.1782222,18.9257111 28.262,18.9257111 C29.1465778,18.9268667 30.0314445,18.9210889 30.9163111,18.9306222 C31.1251778,18.9326445 31.2005778,18.8800667 31.2,18.6564667 C31.1930667,15.5165333 31.1933555,12.3768889 31.1997111,9.23724445 C31.2002889,9.02808889 31.1358667,8.97031111 30.9333555,8.97204445 C30.0328889,8.98128889 29.1324222,8.9758 28.2319555,8.97666667 C28.1559778,8.97666667 28.08,8.98562222 27.9985333,8.99082222 Z M29.5518889,8.40726667 C30.8923333,8.40697778 31.7800889,7.11564445 31.2444889,5.94506667 C30.8937778,5.17835555 29.9875333,4.74242222 29.1465778,4.93568889 C28.3293111,5.12375555 27.7318889,5.77924445 27.7041555,6.5188 C27.6631333,7.60415555 28.4494889,8.40755555 29.5518889,8.40726667 Z M11.8568667,12.2419778 C11.8571555,11.9993111 11.8588889,11.7566445 11.8565778,11.5136889 C11.8551333,11.3903333 11.9045333,11.308 12.0339555,11.3250445 C12.4811555,11.3836889 12.9344222,11.4200889 13.3703555,11.5266889 C13.6774445,11.6015111 13.9022,11.8204889 13.9102889,12.1833333 C13.9183778,12.5438667 13.7300222,12.7654445 13.4209111,12.9127778 C12.9708222,13.1274222 12.4863555,13.154 12.0018889,13.1684445 C11.9553778,13.1698889 11.8675555,13.0572222 11.8635111,12.9933778 C11.8470445,12.7437778 11.8568667,12.4927333 11.8568667,12.2419778 Z M39.8348889,5.64548889 L42.8872889,5.64548889 C43.5757111,5.64548889 44.1003333,5.69835555 44.4614445,5.80351111 C44.9467778,5.94651111 45.3624889,6.20044445 45.7085778,6.56531111 C46.0546667,6.93017778 46.3178445,7.3768 46.4984,7.90517778 C46.6789555,8.43384445 46.7693778,9.08557778 46.7693778,9.86037778 C46.7693778,10.5412889 46.6847333,11.1280222 46.5154445,11.6208667 C46.3086,12.2226222 46.0130667,12.7096889 45.6294222,13.0820667 C45.3396667,13.3643111 44.9488,13.5844445 44.4559555,13.7421778 C44.0870445,13.8588889 43.5944889,13.9172445 42.9777111,13.9172445 L39.8348889,13.9172445 L39.8348889,5.64548889 Z M41.5049555,7.04486667 L41.5049555,12.5236445 L42.7518,12.5236445 C43.2180667,12.5236445 43.5552,12.4973555 43.7617555,12.4444889 C44.0327333,12.3768889 44.2574889,12.2622 44.4360222,12.1004222 C44.6148445,11.9386445 44.7607333,11.6725778 44.8734,11.3019333 C44.9863555,10.9315778 45.0426889,10.4266 45.0426889,9.787 C45.0426889,9.14768889 44.9863555,8.65657778 44.8734,8.31424445 C44.7607333,7.9722 44.6027111,7.70497778 44.3993333,7.51315555 C44.1962445,7.32133333 43.9388445,7.19162222 43.6265555,7.12373333 C43.3931333,7.07115555 42.9361111,7.04486667 42.2554889,7.04486667 L41.5049555,7.04486667 Z M47.7622889,11.2256667 L49.3872889,11.0679333 C49.4852222,11.6133555 49.6834,12.0140445 49.9826889,12.2697111 C50.2816889,12.5256667 50.6849778,12.6533555 51.1928445,12.6533555 C51.7307555,12.6533555 52.1360667,12.5395333 52.4087778,12.3118889 C52.6814889,12.0845333 52.8178445,11.8181778 52.8178445,11.5136889 C52.8178445,11.3181111 52.7606445,11.1517111 52.6456667,11.0142 C52.5309778,10.8769778 52.3307778,10.7573778 52.0447778,10.6559778 C51.8494889,10.5883778 51.4037333,10.4679111 50.7075111,10.2948667 C49.8125333,10.073 49.1842,9.80028889 48.8230889,9.47673333 C48.3152222,9.02173333 48.0612889,8.46677778 48.0612889,7.81215555 C48.0612889,7.39095555 48.1806,6.99691111 48.4195111,6.63002222 C48.6587111,6.26342222 49.0027778,5.98406667 49.4522889,5.79224445 C49.9015111,5.60042222 50.4443333,5.50451111 51.0798889,5.50451111 C52.1181555,5.50451111 52.8996,5.73215555 53.4245111,6.18715555 C53.9491333,6.64244445 54.2247333,7.24997778 54.2510222,8.00975555 L52.5809555,8.08313333 C52.5096,7.65788889 52.3559111,7.35224445 52.1210445,7.1662 C51.8858889,6.97986667 51.5334445,6.88684445 51.0631333,6.88684445 C50.5778,6.88684445 50.1979111,6.98651111 49.9234667,7.18584445 C49.7463778,7.31382222 49.6582667,7.48484445 49.6582667,7.69948889 C49.6582667,7.89506667 49.7408889,8.06233333 49.9064222,8.20157778 C50.1173111,8.37837778 50.6286445,8.56268889 51.441,8.75451111 C52.2536445,8.94633333 52.8545333,9.1448 53.2439555,9.34962222 C53.6330889,9.55473333 53.9378667,9.83495555 54.158,10.1905778 C54.3778445,10.5459111 54.4879111,10.9850222 54.4879111,11.5079111 C54.4879111,11.9819778 54.3561778,12.4257111 54.093,12.8396889 C53.8298222,13.2533778 53.4574445,13.5607555 52.9758667,13.7621111 C52.4942889,13.9631778 51.8945555,14.064 51.1760889,14.064 C50.1300222,14.064 49.3272,13.8222 48.7667555,13.3388889 C48.2060222,12.8555778 47.8714889,12.1512667 47.7622889,11.2256667 Z M55.4698445,11.2256667 L57.0948445,11.0679333 C57.1927778,11.6133555 57.3909555,12.0140445 57.6899555,12.2697111 C57.9892445,12.5256667 58.3925333,12.6533555 58.9004,12.6533555 C59.4383111,12.6533555 59.8433333,12.5395333 60.1163333,12.3118889 C60.3890445,12.0845333 60.5254,11.8181778 60.5254,11.5136889 C60.5254,11.3181111 60.4682,11.1517111 60.3532222,11.0142 C60.2385333,10.8769778 60.0380445,10.7573778 59.7523333,10.6559778 C59.5567555,10.5883778 59.111,10.4679111 58.4150667,10.2948667 C57.5198,10.073 56.8917555,9.80028889 56.5306445,9.47673333 C56.0227778,9.02173333 55.7688445,8.46677778 55.7688445,7.81215555 C55.7688445,7.39095555 55.8881555,6.99691111 56.1270667,6.63002222 C56.3659778,6.26342222 56.7103333,5.98406667 57.1595555,5.79224445 C57.6090667,5.60042222 58.1518889,5.50451111 58.7874445,5.50451111 C59.8257111,5.50451111 60.6071555,5.73215555 61.1317778,6.18715555 C61.6566889,6.64244445 61.9322889,7.24997778 61.9585778,8.00975555 L60.2882222,8.08313333 C60.2168667,7.65788889 60.0634667,7.35224445 59.8286,7.1662 C59.5934445,6.97986667 59.241,6.88684445 58.7706889,6.88684445 C58.2853555,6.88684445 57.9051778,6.98651111 57.6307333,7.18584445 C57.4539333,7.31382222 57.3655333,7.48484445 57.3655333,7.69948889 C57.3655333,7.89506667 57.4481555,8.06233333 57.6139778,8.20157778 C57.8245778,8.37837778 58.3362,8.56268889 59.1485555,8.75451111 C59.9612,8.94633333 60.5620889,9.1448 60.9512222,9.34962222 C61.3406445,9.55473333 61.6454222,9.83495555 61.8655555,10.1905778 C62.0854,10.5459111 62.1954667,10.9850222 62.1954667,11.5079111 C62.1954667,11.9819778 62.0637333,12.4257111 61.8005555,12.8396889 C61.5373778,13.2533778 61.165,13.5607555 60.6834222,13.7621111 C60.2018445,13.9631778 59.6018222,14.064 58.8833555,14.064 C57.8375778,14.064 57.0347555,13.8222 56.4740222,13.3388889 C55.9135778,12.8555778 55.5790445,12.1512667 55.4698445,11.2256667 Z M41.7242222,18.1884667 L42.2910222,18.3681555 C42.2040667,18.6839111 42.0596222,18.9187778 41.8576889,19.0721778 C41.6551778,19.2252889 41.3989333,19.3021333 41.0883778,19.3021333 C40.7035778,19.3021333 40.3878222,19.1709778 40.1402445,18.9080889 C39.8929555,18.6454889 39.7690222,18.2864 39.7690222,17.8308222 C39.7690222,17.3489555 39.8935333,16.9748445 40.1422667,16.7082 C40.391,16.4415555 40.7183111,16.3083778 41.1239111,16.3083778 C41.4778,16.3083778 41.7655333,16.4129555 41.9868222,16.6224 C42.1185555,16.7460445 42.2173555,16.9237111 42.2829333,17.1554 L41.7042889,17.2937778 C41.6702,17.1435555 41.5985555,17.0251111 41.4902222,16.9381555 C41.3813111,16.8514889 41.2495778,16.8078667 41.0941555,16.8078667 C40.8795111,16.8078667 40.7053111,16.885 40.5715555,17.0389778 C40.4383778,17.1929555 40.3713555,17.4425555 40.3713555,17.7874889 C40.3713555,18.1535111 40.4372222,18.4140889 40.5689555,18.5695111 C40.7006889,18.7246445 40.8717111,18.8026445 41.0823111,18.8026445 C41.2377333,18.8026445 41.3712,18.7532445 41.4832889,18.6544445 C41.5950889,18.5556445 41.6754,18.4002222 41.7242222,18.1884667 Z M42.6740889,17.8230222 C42.6740889,17.5280667 42.718,17.2804889 42.8064,17.0805778 C42.8719778,16.9329555 42.9621111,16.8006445 43.0759333,16.6836445 C43.1897555,16.5663555 43.3142667,16.4794 43.4500445,16.4227778 C43.6303111,16.3465111 43.8386,16.3083778 44.0743333,16.3083778 C44.5007333,16.3083778 44.8422,16.4406889 45.0981555,16.7053111 C45.3541111,16.9699333 45.4820889,17.3379778 45.4820889,17.8091555 C45.4820889,18.2765778 45.3552667,18.6423111 45.1010445,18.9063555 C44.8468222,19.1701111 44.5070889,19.3021333 44.0821333,19.3021333 C43.6514,19.3021333 43.3093555,19.1709778 43.0551333,18.9080889 C42.8009111,18.6454889 42.6740889,18.2838 42.6740889,17.8230222 Z M43.2764222,17.8033778 C43.2764222,18.1309778 43.3518222,18.3797111 43.5034889,18.5487111 C43.6548667,18.718 43.8469778,18.8026445 44.0801111,18.8026445 C44.3132445,18.8026445 44.5044889,18.7185778 44.6535555,18.5507333 C44.8032,18.3828889 44.8780222,18.1309778 44.8780222,17.7952889 C44.8780222,17.4636445 44.8052222,17.2160667 44.6599111,17.0528445 C44.5143111,16.8896222 44.3210445,16.8078667 44.0801111,16.8078667 C43.8391778,16.8078667 43.6450445,16.8904889 43.4974222,17.0557333 C43.3500889,17.2209778 43.2764222,17.4702889 43.2764222,17.8033778 Z M45.9304445,19.2527333 L45.9304445,16.3577778 L46.8054889,16.3577778 L47.3306889,18.3326222 L47.8501111,16.3577778 L48.7268889,16.3577778 L48.7268889,19.2527333 L48.1837778,19.2527333 L48.1837778,16.9739778 L47.6091778,19.2527333 L47.0464222,19.2527333 L46.4735555,16.9739778 L46.4735555,19.2527333 L45.9304445,19.2527333 Z M49.3075555,19.2527333 L49.3075555,16.3577778 L50.2455778,16.3577778 C50.6009111,16.3577778 50.8326,16.3722222 50.9406445,16.4011111 C51.1064667,16.4447333 51.2454222,16.5392 51.3572222,16.6845111 C51.4693111,16.8298222 51.5250667,17.0178889 51.5250667,17.2484222 C51.5250667,17.4260889 51.493,17.5754445 51.4285778,17.6964889 C51.3638667,17.8178222 51.2821111,17.9128667 51.1827333,17.9819111 C51.0830667,18.0509555 50.9822445,18.0968889 50.8794,18.1191333 C50.7398667,18.1468667 50.5379333,18.1607333 50.2733111,18.1607333 L49.8919778,18.1607333 L49.8919778,19.2527333 L49.3075555,19.2527333 Z M49.8919778,16.8474445 L49.8919778,17.6690445 L50.2120667,17.6690445 C50.4423111,17.6690445 50.5965778,17.6537333 50.674,17.6236889 C50.7517111,17.5933555 50.8126667,17.5459778 50.8565778,17.4812667 C50.9007778,17.4168445 50.9230222,17.3417333 50.9230222,17.2562222 C50.9230222,17.1507778 50.8918222,17.0638222 50.83,16.9956445 C50.7681778,16.9271778 50.6898889,16.8841333 50.5951333,16.8670889 C50.5255111,16.8540889 50.3851111,16.8474445 50.1745111,16.8474445 L49.8919778,16.8474445 Z M52.0208,19.2527333 L52.0208,16.3814667 L52.6055111,16.3814667 L52.6055111,18.7650889 L54.0589111,18.7650889 L54.0589111,19.2527333 L52.0208,19.2527333 Z M54.4578667,16.3577778 L55.0422889,16.3577778 L55.0422889,19.2530222 L54.4578667,19.2530222 L54.4578667,16.3577778 Z M58.2099555,19.2527333 L57.5741111,19.2527333 L57.3213333,18.5952222 L56.1640445,18.5952222 L55.9251333,19.2527333 L55.3048889,19.2527333 L56.4327111,16.3577778 L57.0506445,16.3577778 L58.2099555,19.2527333 Z M57.1338445,18.1072889 L56.7348889,17.0332 L56.3437333,18.1072889 L57.1338445,18.1072889 Z M58.526,19.2527333 L58.526,16.3577778 L59.0948222,16.3577778 L60.2795555,18.2910222 L60.2795555,16.3577778 L60.8226667,16.3577778 L60.8226667,19.2527333 L60.2362222,19.2527333 L59.0691111,17.3648445 L59.0691111,19.2527333 L58.526,19.2527333 Z M62.0926222,19.2527333 L62.0926222,16.8474445 L61.2334667,16.8474445 L61.2334667,16.3577778 L63.5341778,16.3577778 L63.5341778,16.8474445 L62.6770445,16.8474445 L62.6770445,19.2527333 L62.0926222,19.2527333 Z"/>
</svg>
