<svg xmlns="http://www.w3.org/2000/svg" width="65" height="28" viewBox="0 0 65 28">
  <path fill="#999" fill-rule="evenodd" d="M201.994472,21.6927525 C200.766086,18.5992837 198.577407,16.4324368 194.066132,15.2827744 L194.119311,15.0165798 L199.442599,15.0165798 C200.152351,15.0425647 200.737919,15.2827744 200.933108,16.0916314 L202.102003,21.9671708 C202.102751,21.969212 202.103498,21.9712526 202.104243,21.9732939 L202.441141,23.7475218 L205.670526,15.0217164 L209.183933,15.0217164 L203.984828,27.7869725 L200.471724,27.7972455 L197.792253,17.6519368 C198.885268,18.0386647 201.013352,19.3437741 201.994472,21.6927525 Z M183.84589,12.0159227 L181.716636,12.0159227 L179.285532,1.0043484 L181.609976,0.613063449 L183.295674,9.22888615 L187.554184,0.722441946 L189.789796,0.722441946 L183.84589,12.0159227 Z M189.807623,8.41489259 C189.665612,9.94921305 190.375364,10.6121313 191.582153,10.6121313 C192.593451,10.6121313 193.480565,10.2413926 194.438684,9.63618504 L194.438684,11.1705056 C193.498392,11.7548647 192.416088,12.1307399 191.138596,12.1307399 C188.938336,12.1307399 187.483179,10.8780238 187.926736,8.03901732 C188.317114,5.48191728 190.091644,3.931885 192.132067,3.931885 C194.492165,3.931885 195.290446,5.70641513 194.935722,7.93991193 C194.917895,8.10700119 194.864716,8.30007538 194.846889,8.41489259 L189.807623,8.41489259 Z M190.020639,7.19390225 L193.143365,7.19390225 C193.21437,5.97260976 192.823992,5.28884308 191.883699,5.28884308 C191.102942,5.28884308 190.375364,5.90462589 190.020639,7.19390225 Z M197.455355,11.9687872 L195.503463,11.9687872 L196.70995,4.09383769 L198.377821,4.09383769 L198.377821,5.68012804 C199.034394,4.7670291 199.939335,3.99986887 201.163649,3.931885 L201.181476,5.87350438 C199.939335,5.95689793 198.839205,6.60410439 198.14728,7.45465817 L197.455355,11.9687872 Z M201.146124,11.9687872 L202.370438,4.09383769 L204.322028,4.09383769 L203.097714,11.9687872 L201.146124,11.9687872 Z M202.5478,1.67240325 C202.654157,1.0043484 203.257552,0.529367749 203.896298,0.529367749 C204.535044,0.529367749 204.996428,1.0043484 204.889769,1.67240325 C204.783412,2.31930756 204.197844,2.77857638 203.559098,2.77857638 C202.902525,2.77857638 202.458968,2.31930756 202.5478,1.67240325 Z M208.545186,2.94052907 L208.367522,4.09383769 L209.875857,4.09383769 L209.875857,5.69583986 L208.119154,5.69583986 L207.161035,11.9687872 L205.226969,11.9687872 L206.185089,5.69583986 L205.049607,5.69583986 L205.297975,4.09383769 L206.433456,4.09383769 L206.646472,2.74745488 C206.912667,1.0043484 208.119154,0.346868822 209.733847,0.346868822 C210.071047,0.346868822 210.337241,0.383429038 210.514604,0.414550543 L210.532431,2.01141615 C210.337241,1.98029465 210.05322,1.94373443 209.733847,1.94373443 C209.059749,1.94373443 208.651543,2.24105057 208.545186,2.94052907 Z M209.751673,11.9687872 L210.958161,4.09383769 L212.92788,4.09383769 L211.703566,11.9687872 L209.751673,11.9687872 Z M211.15335,1.67240325 C211.260009,1.0043484 211.863102,0.529367749 212.501848,0.529367749 C213.140594,0.529367749 213.584453,1.0043484 213.495621,1.67240325 C213.389264,2.31930756 212.803696,2.77857638 212.16495,2.77857638 C211.508377,2.77857638 211.06482,2.31930756 211.15335,1.67240325 Z M215.447513,8.41489259 C215.305503,9.94921305 216.015254,10.6121313 217.221741,10.6121313 C218.233341,10.6121313 219.120455,10.2413926 220.078575,9.63618504 L220.078575,11.1705056 C219.138282,11.7548647 218.055677,12.1307399 216.778184,12.1307399 C214.577924,12.1307399 213.123069,10.8780238 213.566626,8.03901732 C213.957005,5.48191728 215.731233,3.931885 217.789482,3.931885 C220.14958,3.931885 220.930337,5.70641513 220.593137,7.93991193 C220.557483,8.10700119 220.522132,8.30007538 220.504305,8.41489259 L215.447513,8.41489259 Z M215.660227,7.19390225 L218.801082,7.19390225 C218.854261,5.97260976 218.463882,5.28884308 217.52359,5.28884308 C216.742833,5.28884308 216.015254,5.90462589 215.660227,7.19390225 Z M226.288977,11.9687872 L226.288977,10.8780238 C225.632404,11.5460787 224.780641,12.1307399 223.698338,12.1307399 C222.047992,12.1307399 220.91251,10.9094475 221.320716,8.24780334 C221.782099,5.32026674 223.591679,4.0155807 225.419388,4.0155807 C226.164793,4.0155807 226.750361,4.14610973 227.193918,4.30776028 L227.779486,0.508519362 L229.784254,0.200627959 L227.974675,11.9687872 L226.288977,11.9687872 Z M225.472566,5.58102266 C224.443441,5.58102266 223.556328,6.4110302 223.290133,8.13842484 C223.059592,9.66730654 223.609506,10.3876335 224.461268,10.3876335 C225.188847,10.3876335 225.809766,9.96492489 226.430686,9.30714313 L226.94555,5.92033771 C226.484166,5.69583986 226.129139,5.58102266 225.472566,5.58102266 Z M231.576611,11.645184 L232.854104,3.29011725 L234.379964,3.05534627 L233.83005,6.67178612 C234.273607,6.2753646 234.877002,5.8837775 235.639932,5.8837775 C236.899598,5.8837775 237.733533,6.81802698 237.431987,8.81675281 C237.094787,11.0139916 235.728462,12.0419077 233.954234,12.0419077 C233.031466,12.0419077 232.286363,11.8956668 231.576611,11.645184 Z M233.617034,7.96619903 L233.208829,10.6695399 C233.49285,10.7843571 233.705866,10.8311905 234.114072,10.8311905 C235.054364,10.8311905 235.710937,10.2676797 235.923953,8.90558507 C236.101316,7.757413 235.710937,7.18846354 235.054364,7.18846354 C234.557629,7.18846354 234.060591,7.52264204 233.617034,7.96619903 Z M240.927566,12.2872539 C240.164636,13.7590292 239.419231,14.2128594 238.265922,14.2128594 C237.999728,14.2128594 237.857717,14.1920109 237.733533,14.1503142 L237.716008,12.9290217 C237.911198,12.9812938 238.123912,13.0127173 238.407933,13.0127173 C238.833663,13.0127173 239.206517,12.8196432 239.454885,12.3863593 L239.650074,11.9896357 L238.407933,6.11854847 L239.969447,5.92033771 L240.696723,10.1631356 L242.68427,6.00916997 L244.139125,6.00916997 L240.927566,12.2872539 Z M210.514604,15.0114432 L213.814994,15.0114432 L211.756745,27.8078208 L208.456354,27.8078208 L210.514604,15.0114432 Z M220.770499,14.792082 C222.065819,14.792082 223.094944,15.0688518 223.73369,15.3244712 L223.290133,18.0957959 L222.988587,17.9546917 C222.385192,17.6939357 221.604435,17.4434529 220.522132,17.4643013 C219.226812,17.4643013 218.62372,18.0329487 218.62372,18.5653379 C218.62372,19.1654088 219.333472,19.5569959 220.48678,20.1519304 C222.385192,21.0650293 223.272306,22.1663681 223.254781,23.6221293 C223.236954,26.2786369 220.983516,27.9954563 217.505763,27.9954563 C216.033081,27.9800466 214.595751,27.6721552 213.832821,27.3119918 L214.294205,24.4521369 L214.719935,24.6554842 C215.802238,25.1304648 216.494163,25.3235391 217.825136,25.3235391 C218.783255,25.3235391 219.794553,24.9322541 219.794553,24.0762616 C219.81238,23.5127508 219.368823,23.1108906 218.091331,22.4845326 C216.831363,21.8738863 215.181319,20.8511067 215.199146,19.0088948 C215.21667,16.5249153 217.505763,14.792082 220.770499,14.792082 Z M229.660071,15.027155 L232.215358,15.027155 L234.894527,27.8129574 L231.824979,27.8129574 C231.824979,27.8129574 231.523433,26.3360455 231.416774,25.8924885 C230.937865,25.8924885 227.566469,25.8873519 227.193918,25.8873519 C227.051907,26.2315014 226.484166,27.8129574 226.484166,27.8129574 L223.023938,27.8129574 L227.939021,16.0864948 C228.276221,15.2513507 228.861789,15.027155 229.660071,15.027155 Z M229.447357,19.6926615 C229.447357,19.6926615 228.418232,22.5316681 228.13421,23.2674047 L230.884687,23.2674047 C230.742676,22.6307734 230.121454,19.5778443 230.121454,19.5778443 L229.890914,18.4713691 C229.731076,18.9514863 229.42953,19.7292218 229.447357,19.6926615 Z" transform="translate(-179)"/>
</svg>
